<?xml version="1.0" encoding="UTF-8"?><svg xmlns="http://www.w3.org/2000/svg" width="1100.388" height="111.433" xmlns:xlink="http://www.w3.org/1999/xlink" viewBox="0 0 1100.388 111.433"><defs><style>.l,.m{fill:url(#i);}.n,.o{fill:url(#e);}.p{fill:url(#d);}.q{fill:url(#c);}.r{isolation:isolate;}.s{mix-blend-mode:multiply;}.t{fill:#fff;}.o{filter:url(#f);}.m{filter:url(#j);}.u{fill:#878787;}</style><linearGradient id="c" x1="-1055.528" y1="1260.733" x2="-877.475" y2="1260.733" gradientTransform="translate(1055.975 -1211.215)" gradientUnits="userSpaceOnUse"><stop offset=".695" stop-color="#f8eece"/><stop offset=".931" stop-color="#c1b890"/><stop offset="1" stop-color="#b0a87e"/></linearGradient><linearGradient id="d" x1="-947.547" y1="1272.82" x2="-968.129" y2="1237.989" xlink:href="#c"/><linearGradient id="e" x1="-947.55" y1="1272.815" x2="-968.159" y2="1237.938" gradientTransform="translate(1055.975 -1211.215)" gradientUnits="userSpaceOnUse"><stop offset=".695" stop-color="#f7f0e0"/><stop offset=".889" stop-color="#cac3a2"/><stop offset="1" stop-color="#b0a87e"/></linearGradient><filter id="f" x="-1.324" y="-6.125" width="189" height="122" filterUnits="userSpaceOnUse"><feOffset dx="1.81" dy="2.7"/><feGaussianBlur result="g" stdDeviation="3.141"/><feFlood flood-color="#20245c" flood-opacity=".2"/><feComposite in2="g" operator="in"/><feComposite in="SourceGraphic"/></filter><linearGradient id="i" x1="-29.57" y1="1258.976" x2="-20.606" y2="1236.242" gradientTransform="translate(1060.81 -1206.159) rotate(.18)" gradientUnits="userSpaceOnUse"><stop offset=".698" stop-color="#fffdee"/><stop offset=".817" stop-color="#e8e0c2"/><stop offset="1" stop-color="#b0a87e"/></linearGradient><filter id="j" x="942.399" y="-10.403" width="167" height="125" filterUnits="userSpaceOnUse"><feOffset dx="-2.247" dy="1.676"/><feGaussianBlur result="k" stdDeviation="3.9"/><feFlood flood-color="#20245c" flood-opacity=".2"/><feComposite in2="k" operator="in"/><feComposite in="SourceGraphic"/></filter></defs><g class="r"><g id="a"><g class="s"><path class="u" d="M173.086,3.279c-7.425.508-14.609,1.888-21.975,3.257-3.664.558-7.356,1.302-11.035,1.963-3.697.798-7.382,1.48-11.09,2.372-14.811,3.397-29.729,7.728-44.646,13.182-14.913,5.458-29.832,12.037-44.54,20.034-3.678,2.018-7.352,4.053-11.01,6.157-3.656,2.103-7.3,4.282-10.846,6.727-1.78,1.195-3.531,2.482-5.199,3.936-1.669,1.447-3.247,3.083-4.745,4.811-3.006,3.45-5.438,7.49-7.32,11.67,1.748-4.207,4.077-8.35,7.043-11.961,1.472-1.8,3.037-3.522,4.721-5.074,1.679-1.555,3.445-2.941,5.232-4.227,3.601-2.503,7.271-4.664,10.938-6.786,3.67-2.111,7.35-4.149,11.032-6.169,14.766-8.029,29.734-14.629,44.69-20.103,14.96-5.47,29.914-9.811,44.76-13.216,3.717-.894,7.41-1.578,11.116-2.378l5.536-1.02c1.846-.345,3.693-.692,5.526-.952,7.332-1.046,14.623-1.842,21.812-2.224Z"/></g><path class="t" d="M1031.578,33.739c44.802,33.33,68.831,66.971,68.831,66.971v511.518s2.104,25.277-66.507,45.041c-41.679,13.815-204.437,45.948-204.437,45.948H117.87s-48.149-27.4-69.31-41.817C27.252,646.882.091,643.369.333,614.334c0-32.782,0-525.775,0-531.298,1.339-19.378,1.942-19.304,38.43-37.318C77.654,20.927,177.787.768,177.787.768h791.394s10.619-1.755,62.397,32.971Z"/><g id="b"><g class="s"><path class="q" d="M178.499.915s-1.428-.122-4.947.518c-1.98.361-5.392,1.085-10.224,2.147-3.054.671-12.209,2.715-12.209,2.715-4.062.939-8.136,1.822-12.188,2.807-4.045,1.019-8.111,1.945-12.138,3.04-16.145,4.219-32.137,9.13-47.823,14.988-15.686,5.849-31.069,12.652-45.892,20.656-3.688,2.037-7.418,3.989-11.023,6.189l-5.45,3.217c-1.802,1.099-3.572,2.258-5.359,3.384-1.779,1.131-2.488,1.611-4.103,2.651-1.214.782-2.272,1.936-2.972,3.233-.595,1.103-1.163,2.233-1.476,3.278-3.246,9.069-2.018,23.572-2.025,28.396-.003-5.735-1.077-20.395,1.795-28.525.3-1.065.952-2.568,1.505-3.527.548-.961,1.677-2.129,2.534-2.784,1.747-1.241,2.743-1.96,4.513-3.132,1.79-1.127,3.562-2.288,5.366-3.389l5.457-3.221c3.611-2.202,7.345-4.158,11.037-6.197,14.842-8.015,30.243-14.825,45.945-20.68,15.703-5.864,31.708-10.779,47.865-15.001,4.03-1.096,8.099-2.023,12.147-3.042,4.055-.986,8.131-1.869,12.196-2.809,0,0,9.198-1.835,12.257-2.486,4.845-1.031,8.277-1.633,10.258-1.98,3.392-.594,4.956-.448,4.956-.448Z"/></g><path class="p" d="M6.615,63.497s13.992-10.239,29.056,6.954c16.484,18.813,10.151,32.736,10.151,32.736,1.985-3.721,4.191-7.463,6.599-11.204,5.297-2.568.253-10.577,7.812-11.195.082-3.644,10.708-16.987,8.908-11.048,3.595-10.281,6.669-10.434,9.888-10.765,1.869,1.059,7.037-6.982,10.752-10.345,2.972-2.69,6.024-5.322,9.145-7.881,13.151,2.814,5.914-3.128,9.564-7.455,3.274-8.761,4.27-4.625,9.923-6.958,2.177,1.837,9.429,1.254,10.223-6.391,7.921.445,7.663-4.891,10.463-5.754,3.06-1.568,5.651-2.926,8.12-4.144,7.408-3.653,13.724-6.039,28.353-9.002C111.663,13.173,57.133,30.901,6.615,63.497Z"/><path class="o" d="M6.615,63.497s13.949-10.084,29.056,6.954c16.589,18.709,10.151,32.736,10.151,32.736,1.488-2.791,3.101-5.593,4.831-8.398.865-1.403,7.199-5.567,3.613-4.219-1.534,1.785-1.62-.258,1.916-4.194-3.689.233-3.641-.648,3.197-4.325,6.716-2.671.944-.054,2.982-4.044,2.196-1.975,7.567-2.734,4.441-4.717,4.534,2.857,3.963-4.088,2.339-3.55,2.777-4.202-3.047-10.386,3.541-4.229,7.555-2.383,4.758-1.675,3.79-3.879,5.223,1.09,4.01-3.489,3.857-3.976,2.409-3.678,2.658-4.392,3.976-3.915,1.689-2.017,2.69-3.328,3.653-4.298.963-.969,1.415-1.122,3.424-2.249-.616-2.736,2.66-1.446,3.237-3.778,1.355-.982,3.133-3.842,4.141-2.531,8.497-.656-.502-1.433,3.793-3.054,5.103-3.556.371-3.796,3.857-2.98,2.066,1.588,1.767-1.785,4.211-1.885-4.53,1.128.422-1.412,3.679-3.838-4.521,1.978.309-3.885,4.014-3.045.314,3.486,12.132-2.676,4.085-2.33-1.864-2.609,4.547,2.939,4.118-2.546.325,2.228.963-3.09,4.159-2.445-.646-1.681,1.56-2.103,4.196-2.34,1.168-1.665,2.814-1.506,4.229-2.231,12.24-6.271,16.968-9.196,36.473-13.146C111.663,13.173,56.409,30.64,6.615,63.497Z"/><path class="n" d="M6.615,63.497s13.949-10.084,29.056,6.954c16.589,18.709,10.151,32.736,10.151,32.736,1.488-2.791,3.101-5.593,4.831-8.398.865-1.403,7.199-5.567,3.613-4.219-1.534,1.785-1.62-.258,1.916-4.194-3.689.233-3.641-.648,3.197-4.325,6.716-2.671.944-.054,2.982-4.044,2.196-1.975,7.567-2.734,4.441-4.717,4.534,2.857,3.963-4.088,2.339-3.55,2.777-4.202-3.047-10.386,3.541-4.229,7.555-2.383,4.758-1.675,3.79-3.879,5.223,1.09,4.01-3.489,3.857-3.976,2.409-3.678,2.658-4.392,3.976-3.915,1.689-2.017,2.69-3.328,3.653-4.298.963-.969,1.415-1.122,3.424-2.249-.616-2.736,2.66-1.446,3.237-3.778,1.355-.982,3.133-3.842,4.141-2.531,8.497-.656-.502-1.433,3.793-3.054,5.103-3.556.371-3.796,3.857-2.98,2.066,1.588,1.767-1.785,4.211-1.885-4.53,1.128.422-1.412,3.679-3.838-4.521,1.978.309-3.885,4.014-3.045.314,3.486,12.132-2.676,4.085-2.33-1.864-2.609,4.547,2.939,4.118-2.546.325,2.228.963-3.09,4.159-2.445-.646-1.681,1.56-2.103,4.196-2.34,1.168-1.665,2.814-1.506,4.229-2.231,12.24-6.271,16.968-9.196,36.473-13.146C111.663,13.173,56.409,30.64,6.615,63.497Z"/></g><g id="h"><g class="s"><path class="u" d="M1099.283,99.817c-3.956-5.565-8.504-10.516-13.128-15.615-2.201-2.596-4.566-5.124-6.858-7.682-2.411-2.506-4.723-5.057-7.215-7.525-9.821-9.939-20.448-19.506-31.984-28.525-11.537-9.014-23.984-17.488-37.477-25.104-3.389-1.896-6.79-3.781-10.239-5.619-3.447-1.837-6.951-3.628-10.621-5.212-1.817-.811-3.694-1.555-5.667-2.152-1.968-.602-4.045-1.04-6.158-1.371-4.227-.672-8.656-.607-12.937-.044,4.238-.682,8.702-.877,13.04-.315,2.159.275,4.3.661,6.359,1.223,2.06.556,4.024,1.264,5.918,2.036,3.744,1.599,7.246,3.419,10.713,5.256,3.461,1.844,6.867,3.732,10.259,5.63,13.547,7.646,26.034,16.148,37.604,25.188,11.569,9.045,22.222,18.636,32.066,28.599,2.498,2.474,4.815,5.031,7.232,7.543l3.468,3.837c1.161,1.277,2.323,2.553,3.409,3.862,4.348,5.23,8.473,10.549,12.215,15.991Z"/></g><path class="m" d="M956.998.968c21.19-2.724,35.844,8.046,24.886,24.411,3.411.744,14.084,2.979,11.777,2.695,15.042,9.941,4.56-2.182,14.511,4.201,9.324-2.029,9.739-1.982,16.717,6.577-1.481,2.317,1.768,3.895,6.063,5.333s9.634,2.735,12.332,4.49c5.331,1.208,6.041,1.122,9.661,6.401-3.322-.847,7.775,3.592,9.883,7.539,6.124,5.002,11.464,9.828,16.03,14.253,13.698,13.276,20.425,22.949,20.425,22.949,0,0-35.337-50.574-96.334-84.738-16.913-9.473-23.299-12.451-30.097-13.768-5.198-1.007-9.632-1.266-15.853-.343Z"/><path class="l" d="M956.998.968c21.19-2.724,35.844,8.046,24.886,24.411,3.411.744,14.084,2.979,11.777,2.695,15.042,9.941,4.56-2.182,14.511,4.201,9.324-2.029,9.739-1.982,16.717,6.577-1.481,2.317,1.768,3.895,6.063,5.333s9.634,2.735,12.332,4.49c5.331,1.208,6.041,1.122,9.661,6.401-3.322-.847,7.775,3.592,9.883,7.539,6.124,5.002,11.464,9.828,16.03,14.253,13.698,13.276,20.425,22.949,20.425,22.949,0,0-35.337-50.574-96.334-84.738-16.913-9.473-23.299-12.451-30.097-13.768-5.198-1.007-9.632-1.266-15.853-.343Z"/></g></g></g></svg>