<?xml version="1.0" encoding="UTF-8"?><svg id="a" xmlns="http://www.w3.org/2000/svg" width="69.051" height="82.565" viewBox="0 0 69.051 82.565"><defs><style>.b{fill:#fff;}.c{fill:#eb3d58;opacity:.9;}.d{fill:#ec174c;fill-rule:evenodd;}</style></defs><circle class="c" cx="34.577" cy="34.142" r="26.814"/><path class="d" d="M51.783,4.631C35.269-4.903,14.154.755,4.62,17.269-3.368,31.103-.659,48.143,10.13,58.921l-.023.023,23.064,23.063c.743.743,1.956.743,2.699,0l23.064-23.063-.023-.023c2.087-2.089,3.964-4.449,5.51-7.127,9.534-16.513,3.876-37.628-12.637-47.162ZM34.526,59.861c-14.359,0-26-11.641-26-26S20.167,7.861,34.526,7.861s26,11.641,26,26-11.64,26-26,26Z"/><path class="b" d="M15.164,35.204c-.644,0-1.192-.119-1.648-.356-.455-.238-.805-.58-1.048-1.027s-.365-.989-.365-1.627v-.654l2.071-.017v.654c0,.308.087.549.261.726.173.176.413.264.721.264.302,0,.535-.087.7-.26s.247-.411.247-.713v-1.064c0-.252-.074-.463-.222-.633-.148-.17-.346-.324-.592-.461-.246-.137-.511-.275-.796-.415-.274-.14-.553-.296-.835-.469s-.539-.382-.771-.625c-.231-.243-.419-.541-.562-.893-.143-.352-.214-.777-.214-1.274v-.629c0-.939.265-1.668.792-2.188.528-.52,1.273-.78,2.235-.78.934,0,1.663.263,2.188.788s.788,1.264.788,2.214v.688l-2.071.025v-.696c0-.313-.079-.558-.239-.733-.159-.176-.381-.264-.666-.264-.302,0-.535.08-.7.239s-.247.379-.247.658v.813c0,.285.085.519.255.7.171.182.392.341.663.478.271.137.558.287.859.448.263.134.523.28.784.436.26.157.497.347.713.57.215.224.388.5.52.83.131.33.197.738.197,1.225v1.014c0,.951-.265,1.69-.793,2.218s-1.271.792-2.226.792Z"/><path class="b" d="M23.125,35.204c-.615,0-1.141-.122-1.576-.365-.437-.243-.771-.597-1.002-1.061-.232-.464-.349-1.023-.349-1.677v-6.239c0-.66.116-1.22.349-1.681.231-.461.565-.813,1.002-1.057.436-.243.961-.365,1.576-.365.62,0,1.148.122,1.585.365.436.243.769.597.998,1.061.229.464.344,1.026.344,1.686v.981h-2.105v-.981c0-.207-.03-.384-.092-.532-.062-.148-.154-.264-.276-.348-.123-.084-.274-.126-.453-.126-.252,0-.45.088-.596.264-.146.176-.218.421-.218.734v6.239c0,.313.072.556.218.729s.344.26.596.26c.269,0,.473-.088.612-.264s.209-.42.209-.734v-.981h2.105v.981c0,.66-.115,1.222-.344,1.686-.229.464-.562.818-.998,1.061-.437.243-.965.365-1.585.365Z"/><path class="b" d="M28.066,35.078v-12.201h2.038v12.201h-2.038ZM28.997,29.921v-1.996h2.197c.273,0,.486-.071.638-.213.15-.143.226-.34.226-.591v-1.358c0-.28-.075-.498-.226-.654-.151-.156-.364-.235-.638-.235h-2.197v-1.996h2.071c.66,0,1.223.108,1.689.323.467.215.823.53,1.069.943.246.414.369.914.369,1.501v1.426c0,.604-.123,1.118-.369,1.543s-.603.749-1.069.973-1.029.335-1.689.335h-2.071ZM32.309,35.078l-1.618-5.534,1.903-.386,1.945,5.92h-2.23Z"/><path class="b" d="M39.466,35.204c-.653,0-1.214-.113-1.681-.34s-.823-.553-1.069-.981-.369-.943-.369-1.547v-6.708c0-.609.123-1.128.369-1.556.246-.427.603-.753,1.069-.977s1.027-.335,1.681-.335,1.215.112,1.682.335.823.549,1.069.977c.246.428.369.946.369,1.556v6.708c0,.604-.123,1.12-.369,1.547s-.603.754-1.069.981-1.027.34-1.682.34ZM39.466,33.124c.324,0,.575-.092.751-.277s.264-.444.264-.78v-6.188c0-.33-.088-.587-.264-.771-.176-.184-.427-.276-.751-.276-.318,0-.565.092-.742.276-.176.185-.264.442-.264.771v6.188c0,.335.088.595.264.78.177.185.424.277.742.277Z"/><path class="b" d="M44.768,35.078v-12.192h2.08v12.192h-2.08ZM45.624,35.078v-1.996h4.394v1.996h-4.394Z"/><path class="b" d="M51.949,35.078v-12.192h2.08v12.192h-2.08ZM52.804,35.078v-1.996h4.394v1.996h-4.394Z"/><path class="b" d="M33.914,55.176l-4.313-4.314c-.337-.337-.337-.884,0-1.221s.884-.337,1.221,0l2.843,2.839v-8.27c0-.477.385-.863.862-.863s.862.386.862.863v8.272l2.843-2.844c.337-.337.884-.337,1.221,0,.337.337.337.884,0,1.221l-4.313,4.314c-.337.337-.885.337-1.222,0l-.003.002Z"/></svg>