<?xml version="1.0" encoding="UTF-8"?><svg id="a" xmlns="http://www.w3.org/2000/svg" width="1933.758" height="370.433" viewBox="0 0 1933.758 370.433"><defs><style>.b{fill:#fff;}.b,.c{opacity:.3;}</style></defs><g class="c"><path class="b" d="M1757.533,183.533c-38.415,0-73.816,12.411-102.736,33.32,0-1.609.131-3.145.131-4.682,0-117.196-94.974-212.17-212.138-212.17s-212.197,94.974-212.197,212.17c0,1.379.06,2.692.125,4.039-15.327-5.129-31.868-8.018-48.929-8.018-45.927,0-70.968,19.939-84.322,51.606-13.309,1.883-25.866,5.623-37.348,10.906-19.248-61.11-83.962-106.047-160.824-106.047-92.086,0-166.669,64.455-166.669,144.028,0,5.368.351,10.669,1.023,15.89-8.92-5.146-19.257-8.099-30.281-8.099-14.038,0-26.853,4.781-37.118,12.705-1.838-69.444-58.533-125.257-128.476-125.257-27.452,0-52.92,8.726-73.798,23.427-10.503-80.26-79.113-142.25-162.216-142.25-87.034,0-158.175,68.012-163.363,153.71-12.248-5.531-25.848-8.678-40.203-8.678C43.989,230.133,0,274.074,0,328.298c0,15.094,3.49,29.274,9.527,42.134h754.23c-.023-.204-.058-.405-.083-.609h1169.63c.131-3.395.453-6.698.453-10.132,0-97.279-78.879-176.159-176.225-176.159Z"/></g><g class="c"><path class="b" d="M1757.533,183.533c-38.415,0-73.816,12.411-102.736,33.32,0-1.609.132-3.146.132-4.682,0-117.196-94.975-212.17-212.138-212.17s-212.197,94.974-212.197,212.17c0,1.379.059,2.692.125,4.038-15.327-5.128-31.868-8.018-48.929-8.018-45.927,0-70.968,19.939-84.322,51.606-13.309,1.883-25.866,5.623-37.348,10.906-19.248-61.11-83.962-106.047-160.824-106.047-92.086,0-166.669,64.455-166.669,144.028,0,2.69.377,5.314.528,7.97,5.317-57.267,77.549-102.601,166.141-102.601,76.861,0,141.576,34.115,160.824,80.493,9.052-3.153,18.775-5.576,29.004-7.162,2.178-.254.283-.127,6.434-.88,7.041-.831,14.296-1.272,21.725-1.272,66.993,0,121.345,35.556,121.726,79.543,0-.363.039-.658.039-1.018,0-58.062-54.31-105.148-121.332-105.35,14.61-10.953,35.188-17.252,64.073-17.252,17.061,0,33.602,2.305,48.929,6.409-.066-1.057-.125-2.147-.125-3.238,0-93.273,95.034-168.849,212.197-168.849s212.138,75.576,212.138,168.849c0,1.255-.132,2.437-.132,3.691,28.92-16.614,64.321-26.457,102.736-26.457,96.898,0,175.515,62.331,176.158,139.286.066-.348.066-.768.066-1.156,0-97.28-78.879-176.159-176.224-176.159Z"/><path class="b" d="M703.37,316.475c-14.038,0-26.853,4.781-37.118,12.705-1.838-69.444-58.533-125.257-128.476-125.257-27.452,0-52.92,8.726-73.798,23.427-10.503-80.26-79.113-142.25-162.216-142.25-87.034,0-158.175,68.012-163.363,153.71-12.248-5.531-25.848-8.678-40.203-8.678C43.989,230.133,0,274.074,0,328.298c0,1.919.19,3.773.283,5.66,3.365-38.409,45.844-68.797,97.914-68.797,14.354,0,27.955,2.341,40.203,6.523,5.188-64.27,76.329-115.333,163.363-115.333,83.103,0,151.713,46.536,162.216,106.717,20.877-11.002,46.346-17.528,73.798-17.528,69.943,0,126.638,41.835,128.476,93.953,10.265-5.944,23.08-9.527,37.118-9.527,31.193,0,56.945,17.638,60.387,40.466-3.442-30.404-29.194-53.957-60.387-53.957Z"/></g></svg>