<?xml version="1.0" encoding="UTF-8"?><svg id="a" xmlns="http://www.w3.org/2000/svg" width="1700.538" height="1418.221" viewBox="0 0 1700.538 1418.221"><defs><style>.b,.c,.d,.e,.f{fill:#fff;}.b,.g{opacity:.5;}.c,.h{opacity:.3;}.d{opacity:.45;}.e,.i{opacity:.4;}.f,.j{opacity:.6;}.k{opacity:.8;}.l{opacity:.7;}</style></defs><g class="j"><path class="e" d="M1170.333,574.438c.031-.801.107-1.58.107-2.39,0-22.948-18.607-41.555-41.571-41.555-9.062,0-17.413,2.928-24.235,7.86,0-.38.031-.742.031-1.104,0-27.646-22.404-50.05-50.042-50.05s-50.056,22.404-50.056,50.05c0,.325.014.635.029.953-3.616-1.21-7.518-1.891-11.542-1.891-20.195,0-36.518,16.338-36.518,36.488,0,.551.061,1.073.076,1.64h213.72Z"/><path class="b" d="M993.054,544.085c4.024,0,7.927.544,11.542,1.512-.015-.249-.029-.507-.029-.764,0-22.003,22.418-39.831,50.056-39.831s50.042,17.828,50.042,39.831c0,.296-.031.575-.031.871,6.822-3.919,15.173-6.241,24.235-6.241,22.858,0,41.403,14.704,41.555,32.857.015-.082.015-.181.015-.273,0-22.948-18.607-41.555-41.571-41.555-9.062,0-17.413,2.928-24.235,7.86,0-.38.031-.742.031-1.104,0-27.646-22.404-50.05-50.042-50.05s-50.056,22.404-50.056,50.05c0,.325.014.635.029.953-3.616-1.21-7.518-1.891-11.542-1.891-20.195,0-36.518,16.338-36.518,36.488,0,.084.014.136.014.204.091-15.975,16.384-28.916,36.503-28.916Z"/></g><path class="c" d="M757.956,1047.218c.908-2.147,1.408-4.522,1.408-7.003,0-10.06-8.177-18.214-18.222-18.214-1.173,0-2.382.136-3.479.349.635-2.435.99-4.962.99-7.58,0-17.049-13.841-30.874-30.897-30.874-5.793,0-11.217,1.633-15.845,4.401-4.266-26.836-27.449-47.393-55.511-47.393-31.028,0-56.208,25.126-56.29,56.153-7.013-7.277-16.829-11.846-27.751-11.846-21.163,0-38.333,17.094-38.493,38.212-2.178-.908-4.56-1.422-7.064-1.422-10.075,0-18.222,8.154-18.222,18.214,0,2.482.514,4.856,1.407,7.003h267.969Z"/><path class="c" d="M741.143,1022.001c-.871,0-1.739.091-2.595.212-.144,1.482-.438,2.949-.885,4.371,1.097-.181,2.307-.287,3.479-.287,9.826,0,17.842,6.473,18.183,14.567.008-.228.039-.438.039-.651,0-10.06-8.177-18.214-18.222-18.214ZM738.653,1014.77c0-17.049-13.841-30.874-30.897-30.874-5.793,0-11.217,1.633-15.845,4.401-4.266-26.836-27.449-47.393-55.511-47.393-31.028,0-56.208,25.126-56.29,56.153-7.013-7.277-16.829-11.846-27.751-11.846-21.163,0-38.333,17.094-38.493,38.212-2.178-.908-4.56-1.422-7.064-1.422-10.075,0-18.222,8.154-18.222,18.214,0,.212.03.423.03.651.348-8.094,8.343-14.567,18.192-14.567,2.503,0,4.886.423,7.064,1.165.16-17.518,17.329-31.708,38.493-31.708,10.922,0,20.739,3.781,27.751,9.832.082-25.732,25.262-46.577,56.29-46.577,28.061,0,51.244,17.033,55.511,39.332,4.629-2.314,10.052-3.662,15.845-3.662,15.983,0,29.15,10.075,30.739,22.979.09-.953.158-1.921.158-2.889Z"/><g class="j"><path class="c" d="M796.683,1353.157c.908-2.147,1.408-4.522,1.408-7.003,0-10.06-8.177-18.214-18.222-18.214-1.173,0-2.382.136-3.479.349.635-2.435.99-4.962.99-7.58,0-17.049-13.841-30.874-30.897-30.874-5.793,0-11.217,1.633-15.845,4.401-4.266-26.836-27.449-47.393-55.511-47.393-31.028,0-56.208,25.126-56.29,56.153-7.013-7.277-16.829-11.846-27.751-11.846-21.163,0-38.333,17.094-38.493,38.212-2.178-.908-4.56-1.422-7.064-1.422-10.075,0-18.222,8.154-18.222,18.214,0,2.482.514,4.856,1.407,7.003h267.969Z"/><path class="c" d="M779.869,1327.94c-.871,0-1.739.091-2.595.212-.144,1.482-.438,2.949-.885,4.371,1.097-.181,2.307-.287,3.479-.287,9.826,0,17.842,6.473,18.183,14.567.008-.228.039-.438.039-.651,0-10.06-8.177-18.214-18.222-18.214ZM777.38,1320.709c0-17.049-13.841-30.874-30.897-30.874-5.793,0-11.217,1.633-15.845,4.401-4.266-26.836-27.449-47.393-55.511-47.393-31.028,0-56.208,25.126-56.29,56.153-7.013-7.277-16.829-11.846-27.751-11.846-21.163,0-38.333,17.094-38.493,38.212-2.178-.908-4.56-1.422-7.064-1.422-10.075,0-18.222,8.154-18.222,18.214,0,.212.03.423.03.651.348-8.094,8.343-14.567,18.192-14.567,2.503,0,4.886.423,7.064,1.165.16-17.518,17.329-31.708,38.493-31.708,10.922,0,20.739,3.781,27.751,9.832.082-25.732,25.262-46.577,56.29-46.577,28.061,0,51.244,17.033,55.511,39.332,4.629-2.314,10.052-3.662,15.845-3.662,15.983,0,29.15,10.075,30.739,22.979.09-.953.158-1.921.158-2.889Z"/></g><g class="j"><path class="d" d="M1303.288,1043.437c1.831-3.902,2.891-8.215,2.891-12.798,0-16.459-13.358-29.801-29.816-29.801-4.358,0-8.487.953-12.208,2.632-1.574-26.02-23.175-46.668-49.604-46.668-25.233,0-46.063,18.82-49.255,43.189-6.337-4.463-14.069-7.11-22.404-7.11-21.238,0-38.454,16.944-39.013,38.031-3.117-2.406-7.005-3.857-11.269-3.857-9.471,0-17.292,7.155-18.335,16.383h229.014Z"/><path class="f" d="M1092.609,1031.153c4.265,0,8.153,1.091,11.269,2.891.559-15.824,17.775-28.531,39.013-28.531,8.335,0,16.067,1.981,22.404,5.324,3.193-18.274,24.023-32.403,49.255-32.403,26.428,0,48.03,15.506,49.604,35.021,3.721-1.272,7.851-1.983,12.208-1.983,15.808,0,28.712,9.228,29.725,20.892.031-.575.091-1.135.091-1.726,0-16.459-13.358-29.801-29.816-29.801-4.358,0-8.487.953-12.208,2.632-1.574-26.02-23.175-46.668-49.604-46.668-25.233,0-46.063,18.82-49.255,43.189-6.337-4.463-14.069-7.11-22.404-7.11-21.238,0-38.454,16.944-39.013,38.031-3.117-2.406-7.005-3.857-11.269-3.857-9.471,0-17.292,7.155-18.335,16.383,1.043-6.929,8.864-12.284,18.335-12.284Z"/></g><g class="l"><path class="d" d="M896.631,806.615c2.904-6.187,4.584-13.009,4.584-20.271,0-26.088-21.163-47.228-47.243-47.228-6.906,0-13.449,1.514-19.342,4.175-2.496-41.23-36.722-73.951-78.595-73.951-39.981,0-72.99,29.824-78.043,68.437-10.044-7.073-22.297-11.271-35.504-11.271-33.65,0-60.926,26.851-61.811,60.262-4.938-3.812-11.104-6.113-17.858-6.113-15.007,0-27.397,11.331-29.053,25.959h362.864Z"/><path class="f" d="M562.82,787.147c6.754,0,12.919,1.724,17.858,4.584.885-25.075,28.16-45.202,61.811-45.202,13.207,0,25.46,3.14,35.504,8.433,5.053-28.953,38.062-51.342,78.043-51.342,41.873,0,76.099,24.567,78.595,55.487,5.893-2.012,12.436-3.138,19.342-3.138,25.051,0,45.488,14.62,47.107,33.099.045-.908.136-1.8.136-2.723,0-26.088-21.163-47.228-47.243-47.228-6.906,0-13.449,1.514-19.342,4.175-2.496-41.23-36.722-73.951-78.595-73.951-39.981,0-72.99,29.824-78.043,68.437-10.044-7.073-22.297-11.271-35.504-11.271-33.65,0-60.926,26.851-61.811,60.262-4.938-3.812-11.104-6.113-17.858-6.113-15.007,0-27.397,11.331-29.053,25.959,1.656-10.983,14.045-19.469,29.053-19.469Z"/></g><g class="l"><path class="e" d="M240.876,903.613c.045-.908.129-1.785.129-2.692,0-25.852-20.974-46.819-46.828-46.819-10.219,0-19.628,3.296-27.313,8.848,0-.423.031-.832.031-1.239,0-31.148-25.24-56.397-56.389-56.397s-56.403,25.248-56.403,56.397c0,.362.023.711.039,1.073-4.085-1.362-8.464-2.133-13.011-2.133-22.736,0-41.131,18.411-41.131,41.117,0,.62.053,1.21.082,1.845h240.793Z"/><path class="b" d="M41.131,869.409c4.546,0,8.926.621,13.011,1.71-.015-.288-.039-.575-.039-.863,0-24.794,25.264-44.882,56.403-44.882s56.389,20.088,56.389,44.882c0,.333-.031.651-.031.984,7.685-4.418,17.094-7.034,27.313-7.034,25.747,0,46.645,16.564,46.813,37.016.008-.09.015-.197.015-.302,0-25.852-20.974-46.819-46.828-46.819-10.219,0-19.628,3.296-27.313,8.848,0-.423.031-.832.031-1.239,0-31.148-25.24-56.397-56.389-56.397s-56.403,25.248-56.403,56.397c0,.362.023.711.039,1.073-4.085-1.362-8.464-2.133-13.011-2.133-22.736,0-41.131,18.411-41.131,41.117,0,.092.006.152.006.226.107-18.002,18.457-32.584,41.124-32.584Z"/></g><g class="g"><path class="e" d="M704.851,518.557c.053-1.066.152-2.102.152-3.177,0-30.504-24.749-55.246-55.261-55.246-12.056,0-23.16,3.888-32.23,10.439,0-.5.039-.984.039-1.461,0-36.759-29.787-66.554-66.546-66.554s-66.561,29.795-66.561,66.554c0,.424.029.839.045,1.264-4.818-1.603-9.984-2.511-15.354-2.511-26.828,0-48.537,21.722-48.537,48.513,0,.734.06,1.43.099,2.178h284.155Z"/><path class="b" d="M469.134,478.196c5.371,0,10.537.734,15.354,2.02-.015-.341-.045-.68-.045-1.021,0-29.257,29.816-52.961,66.561-52.961s66.546,23.704,66.546,52.961c0,.393-.039.771-.039,1.165,9.07-5.219,20.173-8.305,32.23-8.305,30.383,0,55.049,19.544,55.246,43.68.008-.105.015-.228.015-.356,0-30.504-24.749-55.246-55.261-55.246-12.056,0-23.16,3.888-32.23,10.439,0-.5.039-.984.039-1.461,0-36.759-29.787-66.554-66.546-66.554s-66.561,29.795-66.561,66.554c0,.424.029.839.045,1.264-4.818-1.603-9.984-2.511-15.354-2.511-26.828,0-48.537,21.722-48.537,48.513,0,.113.008.181.008.273.129-21.247,21.784-38.455,48.529-38.455Z"/></g><g class="i"><path class="e" d="M1604.055,1135.971c.029-.908.121-1.785.121-2.692,0-25.852-20.968-46.819-46.836-46.819-10.211,0-19.62,3.296-27.305,8.848,0-.423.031-.832.031-1.239,0-31.148-25.248-56.397-56.381-56.397s-56.411,25.248-56.411,56.397c0,.362.015.711.046,1.073-4.085-1.362-8.472-2.133-13.011-2.133-22.751,0-41.146,18.411-41.146,41.117,0,.62.061,1.21.09,1.845h240.801Z"/><path class="b" d="M1404.31,1101.768c4.539,0,8.926.621,13.011,1.71-.031-.288-.046-.575-.046-.863,0-24.794,25.264-44.882,56.411-44.882s56.381,20.088,56.381,44.882c0,.333-.031.651-.031.984,7.685-4.418,17.094-7.034,27.305-7.034,25.747,0,46.653,16.564,46.82,37.016.015-.09.015-.197.015-.302,0-25.852-20.968-46.819-46.836-46.819-10.211,0-19.62,3.296-27.305,8.848,0-.423.031-.832.031-1.239,0-31.148-25.248-56.397-56.381-56.397s-56.411,25.248-56.411,56.397c0,.362.015.711.046,1.073-4.085-1.362-8.472-2.133-13.011-2.133-22.751,0-41.146,18.411-41.146,41.117,0,.091.014.152.014.226.107-18.002,18.457-32.584,41.132-32.584Z"/></g><g class="h"><path class="e" d="M713.346,202.663c.029-.908.121-1.785.121-2.692,0-25.852-20.968-46.819-46.836-46.819-10.211,0-19.62,3.296-27.305,8.848,0-.423.031-.832.031-1.239,0-31.148-25.248-56.397-56.381-56.397s-56.411,25.248-56.411,56.397c0,.362.015.711.046,1.073-4.085-1.362-8.472-2.133-13.011-2.133-22.751,0-41.146,18.411-41.146,41.117,0,.62.061,1.21.09,1.845h240.801Z"/><path class="b" d="M513.601,168.46c4.539,0,8.926.621,13.011,1.71-.031-.288-.046-.575-.046-.863,0-24.794,25.264-44.882,56.411-44.882s56.381,20.088,56.381,44.882c0,.333-.031.651-.031.984,7.685-4.418,17.094-7.034,27.305-7.034,25.747,0,46.653,16.564,46.82,37.016.015-.09.015-.197.015-.302,0-25.852-20.968-46.819-46.836-46.819-10.211,0-19.62,3.296-27.305,8.848,0-.423.031-.832.031-1.239,0-31.148-25.248-56.397-56.381-56.397s-56.411,25.248-56.411,56.397c0,.362.015.711.046,1.073-4.085-1.362-8.472-2.133-13.011-2.133-22.751,0-41.146,18.411-41.146,41.117,0,.092.014.152.014.226.107-18.002,18.457-32.584,41.132-32.584Z"/></g><path class="c" d="M1636.609,853.586c1.196-2.829,1.846-5.944,1.846-9.212,0-13.221-10.741-23.947-23.947-23.947-1.544,0-3.148.181-4.57.469.832-3.207,1.286-6.52,1.286-9.97,0-22.418-18.198-40.587-40.632-40.587-7.593,0-14.735,2.149-20.816,5.787-5.612-35.278-36.093-62.311-72.959-62.311-40.815,0-73.913,33.038-74.019,73.83-9.214-9.569-22.117-15.574-36.473-15.574-27.835,0-50.405,22.472-50.602,50.231-2.859-1.194-6.006-1.876-9.304-1.876-13.252,0-23.947,10.726-23.947,23.947,0,3.269.68,6.384,1.845,9.212h352.29Z"/><path class="c" d="M1614.508,820.426c-1.151,0-2.3.121-3.419.288-.197,1.952-.576,3.873-1.151,5.749,1.422-.243,3.025-.378,4.57-.378,12.904,0,23.447,8.501,23.9,19.151,0-.302.046-.575.046-.863,0-13.221-10.741-23.947-23.947-23.947ZM1611.224,810.926c0-22.418-18.198-40.587-40.632-40.587-7.593,0-14.735,2.149-20.816,5.787-5.612-35.278-36.093-62.311-72.959-62.311-40.815,0-73.913,33.038-74.019,73.83-9.214-9.569-22.117-15.574-36.473-15.574-27.835,0-50.405,22.472-50.602,50.231-2.859-1.194-6.006-1.876-9.304-1.876-13.252,0-23.947,10.726-23.947,23.947,0,.288.045.561.045.863.454-10.65,10.967-19.151,23.902-19.151,3.298,0,6.444.559,9.304,1.527.197-23.024,22.767-41.684,50.602-41.684,14.355,0,27.259,4.969,36.473,12.925.105-33.824,33.204-61.228,74.019-61.228,36.866,0,67.347,22.389,72.959,51.698,6.082-3.041,13.223-4.81,20.816-4.81,21.027,0,38.349,13.251,40.421,30.21.121-1.256.211-2.527.211-3.798Z"/><g class="i"><path class="c" d="M1403.069,359.431c1.135-2.663,1.74-5.598,1.74-8.661,0-12.413-10.089-22.488-22.494-22.488-1.467,0-2.949.16-4.311.424.787-3.004,1.225-6.12,1.225-9.35,0-21.064-17.094-38.136-38.152-38.136-7.171,0-13.856,2.004-19.575,5.454-5.264-33.175-33.915-58.551-68.558-58.551-38.333,0-69.42,31.034-69.525,69.345-8.668-8.994-20.801-14.622-34.265-14.622-26.154,0-47.364,21.103-47.561,47.198-2.677-1.128-5.628-1.763-8.727-1.763-12.436,0-22.495,10.075-22.495,22.488,0,3.062.635,5.998,1.74,8.661h330.959Z"/><path class="b" d="M1382.315,328.283c-1.089,0-2.162.113-3.207.273-.183,1.831-.545,3.639-1.104,5.385,1.362-.226,2.844-.347,4.311-.347,12.117,0,22.026,7.995,22.449,17.986.015-.265.045-.53.045-.809,0-12.413-10.089-22.488-22.494-22.488ZM1379.229,319.357c0-21.064-17.094-38.136-38.152-38.136-7.171,0-13.856,2.004-19.575,5.454-5.264-33.175-33.915-58.551-68.558-58.551-38.333,0-69.42,31.034-69.525,69.345-8.668-8.994-20.801-14.622-34.265-14.622-26.154,0-47.364,21.103-47.561,47.198-2.677-1.128-5.628-1.763-8.727-1.763-12.436,0-22.495,10.075-22.495,22.488,0,.279.031.536.031.801.439-9.984,10.317-17.978,22.464-17.978,3.1,0,6.051.514,8.727,1.451.197-21.654,21.406-39.165,47.561-39.165,13.464,0,25.597,4.667,34.265,12.148.105-31.805,31.192-57.552,69.525-57.552,34.643,0,63.295,21.056,68.558,48.574,5.719-2.844,12.405-4.516,19.575-4.516,19.726,0,35.988,12.442,37.955,28.394.121-1.18.197-2.367.197-3.571Z"/></g><g class="k"><path class="b" d="M399.752,632.073c0-.937.091-1.829.091-2.798,0-26.836-21.738-48.589-48.529-48.589-8.26,0-15.991,2.057-22.782,5.673-7.671-28.184-33.463-48.908-64.095-48.908-36.7,0-66.425,29.726-66.425,66.425,0,10.06,2.283,19.62,6.292,28.198h195.448Z"/><path class="b" d="M264.437,560.233c30.633,0,56.424,15.734,64.095,37.123,6.791-2.737,14.522-4.296,22.782-4.296,26.7,0,48.362,16.398,48.513,36.685,0-.167.015-.304.015-.469,0-26.836-21.738-48.589-48.529-48.589-8.26,0-15.991,2.057-22.782,5.673-7.671-28.184-33.463-48.908-64.095-48.908-36.7,0-66.425,29.726-66.425,66.425,0,1.241.15,2.451.211,3.676,2.119-26.411,30.907-47.319,66.215-47.319Z"/></g><g class="g"><path class="b" d="M1700.462,651.437c0-.733.076-1.436.076-2.2,0-21.111-17.094-38.206-38.167-38.206-6.489,0-12.57,1.611-17.91,4.455-6.021-22.153-26.323-38.461-50.406-38.461-28.848,0-52.234,23.38-52.234,52.244,0,7.903,1.8,15.422,4.946,22.169h153.696Z"/><path class="b" d="M1594.054,594.944c24.083,0,44.385,12.366,50.406,29.187,5.34-2.139,11.421-3.38,17.91-3.38,20.998,0,38.031,12.896,38.152,28.864,0-.144.015-.249.015-.378,0-21.111-17.094-38.206-38.167-38.206-6.489,0-12.57,1.611-17.91,4.455-6.021-22.153-26.323-38.461-50.406-38.461-28.848,0-52.234,23.38-52.234,52.244,0,.976.121,1.921.166,2.889,1.664-20.778,24.311-37.213,52.068-37.213Z"/></g><g class="i"><path class="b" d="M430.733,1116.154c0-.937.091-1.829.091-2.798,0-26.836-21.738-48.589-48.529-48.589-8.26,0-15.991,2.057-22.782,5.673-7.671-28.184-33.463-48.908-64.095-48.908-36.7,0-66.425,29.726-66.425,66.425,0,10.06,2.283,19.62,6.292,28.198h195.448Z"/><path class="b" d="M295.418,1044.314c30.633,0,56.424,15.734,64.095,37.123,6.791-2.737,14.522-4.296,22.782-4.296,26.7,0,48.362,16.398,48.513,36.685,0-.167.015-.304.015-.469,0-26.836-21.738-48.589-48.529-48.589-8.26,0-15.991,2.057-22.782,5.673-7.671-28.184-33.463-48.908-64.095-48.908-36.7,0-66.425,29.726-66.425,66.425,0,1.241.15,2.451.211,3.676,2.119-26.411,30.907-47.319,66.215-47.319Z"/></g><g class="h"><path class="b" d="M1104.589,78.285c0-.772.076-1.512.076-2.314,0-22.207-17.988-40.193-40.149-40.193-6.838,0-13.221,1.695-18.849,4.689-6.339-23.31-27.683-40.466-53.023-40.466-30.36,0-54.958,24.597-54.958,54.959,0,8.32,1.89,16.231,5.203,23.326h161.699Z"/><path class="b" d="M992.645,18.849c25.34,0,46.684,13.011,53.023,30.71,5.628-2.255,12.011-3.555,18.849-3.555,22.086,0,40.012,13.568,40.133,30.36,0-.15.015-.257.015-.393,0-22.207-17.988-40.193-40.149-40.193-6.838,0-13.221,1.695-18.849,4.689-6.339-23.31-27.683-40.466-53.023-40.466-30.36,0-54.958,24.597-54.958,54.959,0,1.029.121,2.026.181,3.041,1.739-21.86,25.566-39.151,54.776-39.151Z"/></g><g class="h"><path class="b" d="M1139.443,1418.221c0-.772.076-1.512.076-2.314,0-22.207-17.988-40.193-40.149-40.193-6.838,0-13.221,1.695-18.849,4.689-6.339-23.31-27.683-40.466-53.023-40.466-30.36,0-54.958,24.597-54.958,54.959,0,8.32,1.89,16.231,5.203,23.326h161.699Z"/><path class="b" d="M1027.499,1358.785c25.34,0,46.684,13.011,53.023,30.71,5.628-2.255,12.011-3.555,18.849-3.555,22.086,0,40.012,13.568,40.133,30.36,0-.15.015-.257.015-.393,0-22.207-17.988-40.193-40.149-40.193-6.838,0-13.221,1.695-18.849,4.689-6.339-23.31-27.683-40.466-53.023-40.466-30.36,0-54.958,24.597-54.958,54.959,0,1.029.121,2.026.181,3.041,1.739-21.86,25.566-39.151,54.776-39.151Z"/></g></svg>