<?xml version="1.0" encoding="UTF-8"?><svg id="a" xmlns="http://www.w3.org/2000/svg" width="249.498" height="376.477" xmlns:xlink="http://www.w3.org/1999/xlink" viewBox="0 0 249.498 376.477"><defs><style>.f{fill:url(#e);}.g{fill:url(#d);}.h{fill:url(#c);}.i{fill:url(#b);}.j{fill:#2e3086;}.k{fill:#282d69;}.l{fill:#131246;}.m{fill:#4a4648;}.n{fill:#1f386b;}.o{fill:#e9dec4;}.p{fill:#d4c59f;}.q{fill:#696567;}.r{fill:#5a5557;}.s{opacity:.9;}.t{fill:#f9f1dd;}</style><radialGradient id="b" cx="-418.021" cy="2969.877" fx="-418.021" fy="2969.877" r="195.563" gradientTransform="translate(1446.545 -2626.867) rotate(16.867)" gradientUnits="userSpaceOnUse"><stop offset="0" stop-color="#4d4a86"/><stop offset=".28" stop-color="#131246"/><stop offset="1" stop-color="#1c2555"/></radialGradient><radialGradient id="c" cx="-460.186" cy="3012.467" fx="-332.547" fy="3012.467" r="134.995" gradientTransform="translate(1446.545 -2626.867) rotate(16.867)" gradientUnits="userSpaceOnUse"><stop offset=".371" stop-color="#fff9c1"/><stop offset=".685" stop-color="#e2c675"/><stop offset="1" stop-color="#c2912e"/></radialGradient><radialGradient id="d" cx="-418.03" cy="2969.875" fx="-418.03" fy="2969.875" r="195.558" xlink:href="#b"/><radialGradient id="e" cx="-460.186" cy="3012.467" fx="-460.186" fy="3012.467" r="134.995" xlink:href="#c"/></defs><g class="s"><path class="i" d="M244.228,159.106c19.781-64.77-17.853-133.516-83.909-153.543C94.011-14.541,24.67,21.545,4.87,86.381c-15.956,52.628,10.877,101.575,28.942,135.582,9.489,18.462,20.587,48.551,19.734,65.518l37.853,11.405c12.301-16.064,33.011-33.168,50.58-42.772,35.402-19.212,86.477-45.263,102.249-97.008Z"/><path class="h" d="M225.23,153.346c19.715-64.79-9.458-130.971-64.912-147.783C104.549-11.346,43.674,27.461,23.989,92.178c-16.088,52.588,4.648,99.687,18.573,132.511,7.501,17.705,15.572,46.958,14.21,63.7l31.677,9.604c11.146-16.414,29.68-34.178,45.072-44.442,31.167-20.497,75.883-48.475,91.709-100.204Z"/><path class="g" d="M194.898,143.995c19.476-64.708,3.954-126.667-34.64-138.451-39.085-11.85-86.47,31.047-105.966,95.82-16.021,52.608-5.029,96.753,2.216,127.551,3.874,16.688,7.515,44.516,4.984,60.903l22.242,6.744c9.191-16.864,24.182-35.845,36.254-47.115,24.275-22.586,59.157-53.689,74.91-105.452Z"/><path class="f" d="M150.338,130.485c19.539-64.761,23.997-120.673,9.98-124.922-14.356-4.27-41.752,44.605-61.509,109.299-16.028,52.606-18.976,92.524-21.551,120.345-1.232,15.14-4.764,40.947-8.57,56.793l8.073,2.602c6.917-17.851,16.479-38.335,23.564-51.117,14.151-25.655,34.314-61.221,50.013-113Z"/><polygon class="n" points="68.612 316.289 63.511 314.742 66.679 304.765 71.72 306.294 68.612 316.289"/><path class="l" d="M89.243,298.233l-1.632-.495-9.369,16.038-21.273-6.45,1.096-18.474-1.639-.497-1.151,19.598-7.84,13.351,1.643.498,7.432-12.749,21.148,6.412-.823,14.753,1.502.455.971-15.433,9.934-17.007ZM55.667,308.072h0ZM78.895,315.114h0Z"/><polygon class="o" points="53.591 330.158 47.309 376.477 68.489 334.808 53.591 330.158"/><polygon class="t" points="53.591 330.158 43.593 327.038 47.309 376.477 53.591 330.158"/><polygon class="p" points="68.489 334.808 47.309 376.477 78.487 337.928 68.489 334.808"/><polygon class="k" points="81.858 327.247 46.964 316.356 43.593 327.038 53.591 330.158 52.69 336.796 61.04 332.484 57.97 331.525 65.775 333.961 61.04 332.484 65.454 340.78 68.489 334.808 78.487 337.928 81.858 327.247"/><polygon class="j" points="46.964 316.356 43.593 327.038 44.126 334.123 48.592 328.598 48.592 328.598 52.69 336.796 53.591 330.158 56.962 319.477 46.964 316.356"/><polygon class="l" points="71.86 324.126 68.489 334.808 68.49 334.808 68.489 334.808 65.453 340.779 73.413 336.345 73.487 336.368 74.019 343.453 78.487 337.928 81.858 327.247 71.86 324.126"/><polygon class="q" points="49.166 362.79 46.288 362.902 47.309 376.477 49.166 362.79"/><polygon class="m" points="53.568 364.164 55.87 365.892 47.309 376.477 53.568 364.164"/><polygon class="r" points="49.166 362.79 47.309 376.477 53.568 364.164 49.166 362.79"/></g></svg>