<?xml version="1.0" encoding="UTF-8"?><svg xmlns="http://www.w3.org/2000/svg" width="1100.388" height="111.433" xmlns:xlink="http://www.w3.org/1999/xlink" viewBox="0 0 1100.388 111.433"><defs><style>.n{fill:none;}.o{fill:url(#m);}.p,.q{fill:url(#f);}.r{fill:url(#e);}.s{fill:url(#d);}.t{opacity:.75;}.t,.u{mix-blend-mode:multiply;}.v{isolation:isolate;}.w{fill:#fff;}.q{filter:url(#g);}.x{fill:url(#j);filter:url(#k);}.y{fill:#878787;}.z{fill:#f8efd7;}.aa{clip-path:url(#b);}</style><clipPath id="b"><path class="n" d="M1031.578,33.739c44.802,33.33,68.831,66.971,68.831,66.971v511.518s2.104,25.277-66.507,45.041c-41.679,13.815-204.437,45.948-204.437,45.948H117.87s-48.149-27.4-69.31-41.817C27.252,646.882.091,643.369.333,614.334c0-32.782,0-525.775,0-531.298,1.339-19.378,1.942-19.304,38.43-37.318C77.654,20.927,177.787.768,177.787.768h791.394s10.619-1.755,62.397,32.971Z"/></clipPath><linearGradient id="d" x1="-1055.528" y1="1260.733" x2="-877.475" y2="1260.733" gradientTransform="translate(1055.975 -1211.215)" gradientUnits="userSpaceOnUse"><stop offset=".695" stop-color="#f8eece"/><stop offset=".931" stop-color="#c1b890"/><stop offset="1" stop-color="#b0a87e"/></linearGradient><linearGradient id="e" x1="-947.547" y1="1272.82" x2="-968.129" y2="1237.989" xlink:href="#d"/><linearGradient id="f" x1="-947.55" y1="1272.815" x2="-968.159" y2="1237.938" gradientTransform="translate(1055.975 -1211.215)" gradientUnits="userSpaceOnUse"><stop offset=".695" stop-color="#f7f0e0"/><stop offset=".889" stop-color="#cac3a2"/><stop offset="1" stop-color="#b0a87e"/></linearGradient><filter id="g" x="-1.324" y="-6.125" width="189" height="122" filterUnits="userSpaceOnUse"><feOffset dx="1.81" dy="2.7"/><feGaussianBlur result="h" stdDeviation="3.141"/><feFlood flood-color="#20245c" flood-opacity=".2"/><feComposite in2="h" operator="in"/><feComposite in="SourceGraphic"/></filter><linearGradient id="j" x1="-36.548" y1="1251.456" x2="-27.584" y2="1228.722" gradientTransform="translate(1067.777 -1198.629) rotate(.18)" gradientUnits="userSpaceOnUse"><stop offset=".698" stop-color="#fffdee"/><stop offset=".817" stop-color="#e8e0c2"/><stop offset="1" stop-color="#b0a87e"/></linearGradient><filter id="k" x="942.399" y="-10.403" width="167" height="125" filterUnits="userSpaceOnUse"><feOffset dx="-2.247" dy="1.676"/><feGaussianBlur result="l" stdDeviation="3.9"/><feFlood flood-color="#20245c" flood-opacity=".2"/><feComposite in2="l" operator="in"/><feComposite in="SourceGraphic"/></filter><linearGradient id="m" y1="1251.456" x2="-27.584" y2="1228.722" xlink:href="#j"/></defs><g class="v"><g id="a"><g class="u"><path class="y" d="M173.086,3.279c-7.425.508-14.609,1.888-21.975,3.257-3.664.558-7.356,1.302-11.035,1.963-3.697.798-7.382,1.48-11.09,2.372-14.811,3.397-29.729,7.728-44.646,13.182-14.913,5.458-29.832,12.037-44.54,20.034-3.678,2.018-7.352,4.053-11.01,6.157-3.656,2.103-7.3,4.282-10.846,6.727-1.78,1.195-3.531,2.482-5.199,3.936-1.669,1.447-3.247,3.083-4.745,4.811-3.006,3.45-5.438,7.49-7.32,11.67,1.748-4.207,4.077-8.35,7.043-11.961,1.472-1.8,3.037-3.522,4.721-5.074,1.679-1.555,3.445-2.941,5.232-4.227,3.601-2.503,7.271-4.664,10.938-6.786,3.67-2.111,7.35-4.149,11.032-6.169,14.766-8.029,29.734-14.629,44.69-20.103,14.96-5.47,29.914-9.811,44.76-13.216,3.717-.894,7.41-1.578,11.116-2.378l5.536-1.02c1.846-.345,3.693-.692,5.526-.952,7.332-1.046,14.623-1.842,21.812-2.224Z"/></g><path class="w" d="M1031.578,33.739c44.802,33.33,68.831,66.971,68.831,66.971v511.518s2.104,25.277-66.507,45.041c-41.679,13.815-204.437,45.948-204.437,45.948H117.87s-48.149-27.4-69.31-41.817C27.252,646.882.091,643.369.333,614.334c0-32.782,0-525.775,0-531.298,1.339-19.378,1.942-19.304,38.43-37.318C77.654,20.927,177.787.768,177.787.768h791.394s10.619-1.755,62.397,32.971Z"/><g class="t"><g class="aa"><path class="z" d="M632.102,575.479c-.009,0-.017,0-.026,0-3.675-.014-7.205-.278-9.98-3.318-.602-.661-1.359-1.312-2.382-2.049-1.315-.947-2.65-1.27-4.085-.982-.893.178-1.951.375-3.027.483-3.822.381-5.39-1.665-6.038-3.45-.191-.526-.437-1.068-.731-1.609-1.29-2.382-2.474-3.07-4.373-2.534-1.373.387-2.778.106-4.296-.856-2.089-1.325-4.307-2.257-6.783-2.849-3.729-.892-5.187-2.733-5.379-6.792-.049-1.04.051-2.055.148-3.037.034-.343.068-.685.095-1.028.03-.382.078-.763.125-1.145.074-.586.144-1.14.138-1.666-.013-1.417-.407-1.926-1.755-2.27-1.791-.457-3.624-.794-5.181-1.064-1.911-.331-3.541-1.108-4.982-2.376-4.497-3.957-9.499-7.556-15.291-11.003-.471-.28-.925-.587-1.378-.895l-.322-.218c-1.162-.784-1.646-2.074-1.207-3.21.539-1.392,1.967-2.064,3.545-1.674.595.147,1.158.342,1.703.531l.273.095c.387.133.757.124.88-.02.904-1.062,1.933-1.993,2.927-2.894,1.958-1.772,3.806-3.446,4.568-5.929.281-.917,1.024-2.138,2.966-2.739.489-.151.984-.282,1.48-.413.453-.12.906-.239,1.354-.376,1.998-.616,3.511-1.342,4.401-2.886.245-.426.555-.756.828-1.048.087-.093.174-.186.257-.282,2.506-2.895,5.58-3.959,9.133-3.159,2.237.504,4.665,1.008,7.641,1.586.595.116.758.113.939-.68.24-1.055.205-2.117-.106-3.244-.671-2.42-1.892-4.753-3.843-7.34-.725-.962-1.78-1.6-3.419-2.069-2.146-.614-4.364-1.249-6.56-1.744-3.323-.748-7.051-1.871-9.275-5.751-.032.022-.07.051-.111.089-.645.612-1.282,1.277-1.897,1.921-.603.631-1.227,1.284-1.878,1.907l-.606.583c-1.333,1.283-2.711,2.609-4.229,3.761-.907.689-1.989.934-3.04.694-1.102-.252-2.055-1.025-2.614-2.12-.623-1.222-1.184-2.475-1.725-3.686-.066-.147-.132-.294-.198-.44-.325.226-.62.547-.991.967-.358.405-.727.823-1.212,1.184-1.412,1.053-2.755,1.464-4.001,1.224-1.22-.237-2.287-1.09-3.169-2.536-.27-.442-.498-.891-.718-1.325-.149-.294-.298-.587-.459-.874-.672-1.194-1.643-1.939-2.968-2.276-.089-.023-.177-.049-.266-.077-.051-.016-.102-.034-.155-.045-7.652-1.622-14.622-1.668-21.302-.141-.497.114-1.04.283-1.707.532-3.121,1.165-3.394,1.652-2.653,4.736.584,2.428.635,4.826.154,7.331-.205,1.065-.349,2.18-.489,3.259-.088.676-.176,1.353-.278,2.026-.11.723-.367,2.418-2.129,2.962-.905.28-2.244.265-3.485-1.394-.393-.526-.733-1.071-1.062-1.598-.107-.172-.214-.344-.323-.515.012.109.026.227.042.354.058.471.124,1.004.089,1.556-.097,1.542-.729,2.739-1.778,3.372-1.035.625-2.366.626-3.745.004-1.329-.6-2.351-1.185-3.22-1.841-1.306-.988-2.191-1.075-3.507-.349-1.856,1.027-3.891.339-5.06-1.709-.653-1.145-1.205-2.34-1.737-3.496-.285-.62-.571-1.239-.872-1.85-.289-.586-.446-.828-.529-.928-.118.014-.367.07-.89.251-.282.098-.557.219-.831.34-.487.213-.991.434-1.563.575-1.6.395-3.151.079-4.369-.887-.95-.753-2.056-1.666-3.06-2.73-1.681-1.781-3.195-2.755-5.06-3.256-3.075-.827-4.56-3.019-4.417-6.517.067-1.634.369-3.23.655-4.575.944-4.437,1.91-8.984,2.993-13.433.447-1.835.118-2.832-1.212-3.682-.529-.339-1-.72-1.455-1.09-.194-.157-.387-.314-.584-.466-1.94-1.498-2.78-3.555-2.431-5.949l.096-.67c.205-1.454.416-2.957.951-4.389,2.637-7.051,6.044-9.698,12.571-9.768,1.786-.019,3.573-.041,5.358-.095,1.576-.048,1.922-.668,2.06-1.331.703-3.343,2.918-4.901,6.715-4.768.793.03,1.656-.185,2.575-.41.312-.077.624-.153.935-.221,1.349-.295,2.79-.292,4.402.01,2.285.428,3.813,1.715,4.544,3.825l.361,1.045c.504,1.469,1.027,2.987,1.592,4.447.036.093.067.162.093.214.094-.026.238-.074.449-.165,3.566-1.538,5.144-1.176,7.345,1.682.382.497.749,1.006,1.116,1.515.395.548.79,1.096,1.206,1.627.987,1.258,2.327,2.171,4.218,2.872.838.311,1.41.358,1.799.15,2.383-1.274,4.923-1.767,7.38-2.244l.47-.091c1.304-.255,2.007-.916,2.351-2.209.061-.23.126-.461.191-.692.195-.696.38-1.353.46-1.994.683-5.412,3.966-8.639,10.038-9.868,3.402-.689,6.222-.62,8.872.215,2.83.89,4.223,2.942,3.922,5.776-.151,1.426-.463,2.843-.738,4.093-.01.048-.021.096-.031.144,2.222-1.531,4.79-1.613,7.832-.254.373.167.702.36,1.02.547.122.072.245.144.369.213,2.339,1.307,4.442,1.153,6.25-.456,2.555-2.27,5.341-2.814,8.514-1.667,1.062.385,1.341-.029,1.525-.304.593-.893.557-1.715-.113-2.587-.141-.184-.293-.381-.395-.454-3.471-2.499-5.799-5.893-8.051-9.176-.799-1.165-1.626-2.37-2.482-3.499-.199-.263-.394-.531-.587-.797-.799-1.101-1.555-2.141-2.647-2.742-1.828-1.005-2.849-2.716-3.033-5.084-.092-1.171-.12-2.349-.147-3.489-.019-.806-.038-1.612-.08-2.416-.059-1.16-.125-2.2-.33-3.189-.04-.19-.136-.326-.272-.382-.125-.051-.267-.028-.409.066-.585.384-1.136.857-1.72,1.358-.276.237-.552.474-.833.703-.218.177-.433.359-.648.54-.54.455-1.098.926-1.712,1.351-.685.475-1.64.513-2.493.097-.848-.413-1.382-1.154-1.43-1.983-.042-.727-.053-1.456-.064-2.186-.012-.811-.023-1.581-.078-2.345-.334.141-.668.3-1.016.466-.574.274-1.167.557-1.809.779-1.253.433-2.439.346-3.341-.244-.871-.57-1.405-1.564-1.505-2.798-.092-1.148-.055-2.288-.02-3.391l.02-.661c.086-3.223-1.252-5.546-4.21-7.311-1.318-.786-2.676-1.335-4.152-1.678-2.282-.531-4.712-1.087-7.134-1.548-4.129-.786-8.852-2.07-12.565-5.638-.393-.378-.572-.484-.652-.506-2.855-.792-4.601-2.86-5.339-6.322-.409-1.927-1.167-2.914-2.616-3.407-1.569-.534-3.449-1.923-3.489-5.507-.013-1.143.046-2.286.103-3.391.043-.837.086-1.674.098-2.511.028-1.977-.192-3.316-1.403-4.314-2.016-1.661-2.72-4.027-3.342-6.114-.429-1.442-1.13-2.196-2.36-2.576-1.516-.469-3.006-1.154-4.31-1.983-1.517-.964-2.608-.778-4.026.692-.835.864-1.71,1.683-2.603,2.435-2.472,2.082-4.36,2.739-7.25.269-1.887-1.61-3.671-1.549-6.115-.898-7.863,2.096-14.379,3.686-20.507,5.004-1.981.426-3.425,1.247-4.683,2.66-2.355,2.646-4.111,5.597-5.221,8.771-.612,1.752-1.248,3.62-1.706,5.497-.107.437-.227.875-.347,1.314-.846,3.091-1.248,5.093,1.058,7.227l1.631,1.509-2.118.673c-5.54,1.76-8.375,5.542-10.926,10.678-.181.364-.384.717-.589,1.07-.211.365-.411.71-.573,1.056-.882,1.868-2.51,2.704-4.587,2.353-.569-.096-1.121-.226-1.654-.352-.414-.097-.828-.195-1.245-.275-1.966-.374-1.987-.308-2.505,1.355-.449,1.442-.449,2.439-.002,3.334,1.332,2.665,1.08,5.343-.769,8.188-2.184,3.358-2.439,6.866-.76,10.427,1.803,3.822,1.758,7.847-.136,11.966-.68,1.481-.637,2.477.166,3.806.453.751.709,1.658.704,2.49-.006,1.048-.897,1.845-1.279,2.138-.962.739-2.245.666-3.052-.171-.271-.282-.522-.588-.77-.895-.266-.328-.517-.638-.781-.882-1.796-1.663-3.718-2.066-5.878-1.23-.786.304-1.71.673-2.605,1.109-.973.474-1.979.964-2.096,1.214-.134.287.207,1.623.433,2.507.969,3.793.319,7.345-.445,10.319-.347,1.352-1.067,2.368-2.078,2.94-.995.562-2.247.672-3.619.319-.958-.246-1.848-.624-2.709-.989-.093-.04-.187-.079-.279-.118-.088.203-.158.477-.249.859-.037.156-.074.313-.115.468-.471,1.78-.962,3.554-1.453,5.327l-.1.361c-.899,3.25-3.258,3.459-4.584,3.292-.904-.113-1.318.053-1.561,1.376-.118.642-.256,1.279-.393,1.917-.177.82-.344,1.595-.471,2.382-.294,1.817-1.119,3.145-2.387,3.841-.911.501-2.494.886-4.848-.126-1.797-.773-3.237-1.498-4.532-2.285-3.282-1.991-6.352-3.582-9.389-4.862-.6-.253-1.3-.568-1.945-.985-3.955-2.556-5.078-6.055-3.337-10.402.158-.395.322-.786.487-1.177.461-1.098.897-2.135,1.184-3.235.461-1.769.151-3.343-.976-4.953-2.142-3.06-5.322-4.612-9.452-4.612h-.05c-4.235.012-7.772-.024-11.447-.612-.108-.017-.216-.031-.325-.045l-.123-.016c-3.179-.416-5.181-.773-6.189-2.21-.987-1.408-.654-3.37-.075-5.988.228-1.034.222-2.163.216-3.359l-.002-.75c.002-.393.003-.889-.02-1.216-.404.019-1.065.112-1.543.179-1.186.167-2.286-.01-3.255-.165-.483-.077-.939-.151-1.387-.183-.204-.014-.304.037-.321.056-.016.017-.039.101-.015.253.104.657.271,1.315.447,2.011.147.582.293,1.165.408,1.753.169.873-.038,1.769-.565,2.46-.515.674-1.295,1.097-2.141,1.161-.48.037-.931.014-1.365-.008-.238-.012-.483-.023-.716-.024-3.668,0-6.05,1.666-7.282,5.092-.364,1.011-.611,2.07-.874,3.191-.185.79-.376,1.606-.613,2.412-.327,1.111-1.072,1.912-2.046,2.198-.907.268-1.877.033-2.656-.642-2.609-2.256-5.754-3.233-9.672-4.006-1.391-.274-3.002-.621-4.498-1.264-4.169-1.792-6.031-5.111-5.385-9.599.235-1.631.563-3.257.881-4.83.227-1.13.456-2.261.651-3.397.062-.363.199-1.164.184-1.493-.275-.133-.98-.314-1.338-.407-.17-.044-.346-.067-.52-.094-.298-.044-.635-.095-.987-.205-1.918-.602-2.736-1.905-2.5-3.985.071-.63.179-1.247.283-1.844.109-.627.213-1.222.274-1.812-1.484.023-2.966.087-4.399.149l-2.66.107c-.681.025-1.362.05-2.043.084-4.309.219-7.176-1.767-8.3-5.736-.727-2.562-2.099-4.351-4.318-5.629-1.5-.864-2.653-2.276-3.67-3.522l-.156-.191c-1.658-2.026-3.468-2.874-5.677-2.672-2.956.27-4.993-1.154-6.046-4.233-.598-1.748-1.193-3.085-1.873-4.207-1.109-1.83-2.191-2.132-4.138-1.15-.773.39-1.555.871-2.323,1.432-2.243,1.635-5.026,3.344-8.653,3.628-2.35.184-3.794,1.458-4.293,3.788-.027.126-.064.246-.104.366-.011.035-.024.069-.033.104-.542,2.543-1.435,4.066-2.811,4.793-1.794.946-3.976.284-6.068-.573-3.167-1.297-6.479-1.931-9.985-2.603-.871-.167-1.741-.334-2.608-.511-2.224-.453-4.181.518-6.256,1.547l-.361.179c-.25.124-.357.448-.542,1.159-.146.561-.311,1.196-.697,1.785-.802,1.22-2.024,1.995-3.353,2.126-1.331.131-2.632-.369-3.654-1.408-.293-.297-.532-.614-.746-.911-.128-.178-.248-.362-.367-.546-.134-.206-.265-.414-.42-.604-.312-.384-1.042-1.281-1.331-1.329-.327-.057-1.456.542-1.995.829-.304.162-.603.33-.902.499-.557.313-1.133.636-1.738.924-1.66.787-3.445,1.171-5.326,1.146-2.245-.039-5.324.665-7.358,1.657-1.564.763-3.178.329-4.206-1.134-1.636-2.329-3.918-3.92-6.334-5.604-.897-.625-1.825-1.272-2.715-1.959-1.882-1.452-4.206-2.083-6.231-2.509-2.057-.433-3.582-.002-5.098,1.443-1.86,1.773-3.142,2.717-4.598,2.613-1.583-.11-2.784-1.477-4.188-3.251-.391-.495-.823-.963-1.281-1.46-.322-.35-.645-.7-.955-1.06-1.328-1.545-2.812-2.271-4.536-2.225-3.321.095-5.743-1.592-7.162-5.009-.111-.266-.233-.527-.355-.788-.081-.172-.161-.344-.238-.517-1.085-2.411-2.509-3.905-4.616-4.844-3.541-1.578-3.975-3.006-3.548-6.781.037-.319.093-.635.149-.951.056-.314.115-.628.14-.945.187-2.345-.113-2.812-2.144-3.334-3.009-.774-6.118-1.428-9.124-2.06-.928-.195-1.855-.39-2.781-.589-.323-.069-.682-.103-1.062-.138-.439-.041-.893-.083-1.366-.185-1.971-.424-2.711-1.45-2.984-2.237-.283-.816-.329-2.141,1.06-3.819.307-.372.635-.695.951-1.008.157-.155.314-.31.465-.469l.335-.348c.338-.348.656-.678.94-1.02,1.05-1.27,1.507-2.156,1.438-2.787-.068-.618-.668-1.349-1.889-2.299-4.489-3.494-7.704-6.82-10.115-10.467-2.616-3.956-2.77-4.746.516-8.233l.219-.231c.998-1.053,1.86-1.963,2.167-3.198.265-1.062.075-1.481-.342-1.847l-.267-.233c-.423-.367-.86-.746-1.269-1.187-1.779-1.921-2.595-4.555-2.239-7.227.362-2.727,1.883-5.114,4.172-6.547,1.322-.829,2.779-1.032,4.32-.608.896.247,1.786.529,2.646.802.832.264,1.664.529,2.504.761.334.092.593.112.878-.486.484-1.016.616-2.182.405-3.564-.24-1.566-.49-3.131-.74-4.696-.291-1.821-.582-3.641-.857-5.464-.134-.894-.476-1.123-1.1-1.252-2.059-.426-4.492-1.806-4.395-5.957.022-.899.019-1.798.016-2.697-.005-1.369-.009-2.785.073-4.192.14-2.411,1.505-4.262,3.844-5.212l3.213-1.305c3.013-1.223,6.025-2.446,9.034-3.68,2.118-.869,4.036-.18,5.294.414l.177.084c1.121.53,2.124,1.005,3.172,1.067-.085-.364-.276-.758-.533-1.266-.282-.556-.601-1.187-.754-1.907-.244-1.148.01-2.262.698-3.058.66-.764,1.632-1.144,2.711-1.075,1.993.129,3.821.731,5.59,1.313l.882.288c2.122.681,4.408,1.33,6.984,1.983.526.133.697.053.698.052.011-.01.057-.074.1-.222.973-3.394,3.518-4.846,7.567-4.313.74.097,1.477.229,2.213.361,1.052.188,2.045.367,3.043.442,2.777.212,3.491-.268,4.51-3.014.061-.164.107-.333.155-.502.083-.296.178-.631.33-.971.924-2.07,2.58-2.961,4.901-2.649,1.919.258,3.634.974,5.096,2.13.886.7,1.777,1.392,2.669,2.085l3.402,2.66c1.184.931,2.368,1.862,3.562,2.779.967.742,1.413.968,1.604,1.036.258-.33.67-1.314.878-1.812,1.726-4.122,3.751-4.499,7.631-3.785,2.116.389,3.93,1.407,5.708,3.204.613.62,1.217,1.249,1.821,1.878,1.068,1.112,2.173,2.262,3.301,3.326.638.602.932.622.958.623.07-.002.346-.061.969-.729,1.171-1.256,1.913-2.414,2.335-3.644,1.065-3.105,1.563-6.654,1.565-11.168.002-1.947-.841-3.479-2.574-4.684-2.347-1.631-2.806-3.313-2.78-4.437.029-1.181.624-2.939,3.297-4.612.874-.547,1.779-1.04,2.653-1.516.856-.467,1.666-.908,2.455-1.398.17-.106.227-.198.235-.223-.009-.01-.083-.126-.311-.249-.582-.315-1.16-.64-1.737-.964-2.267-1.274-4.409-2.478-6.804-3.136l-.542-.144c-.463-.121-.94-.245-1.422-.41-1.278-.438-3.061-1.209-3.797-2.841-.577-1.281-.445-2.789.427-4.888.155-.371.356-.68.534-.953.09-.138.182-.275.258-.42.621-1.172.3-1.781-.374-2.333-2.482-2.037-4.186-4.633-5.833-7.144-.259-.395-.518-.789-.779-1.181-1.95-2.922-1.999-5.867-.147-8.755,1.024-1.598,1.862-3.086,2.56-4.549,1.172-2.456,1.404-4.497.754-6.618-.538-1.757-.492-3.177.142-4.34.679-1.246,1.958-2.099,4.025-2.684,2.086-.59,4.233-.717,6.381-.376,1.413.225,3.088.478,4.786.655.057.006.091-.002.107-.023.027-.035.025-.102-.005-.179-.719-1.877-1.77-3.713-3.213-5.615-.215-.284-.449-.556-.681-.828-.413-.483-.84-.983-1.207-1.564-1.823-2.883-1.22-5.913,1.535-7.719l.242-.159c2.408-1.582,5.138-3.374,8.693-3.013.64.065.992.041,1.42-1.187.339-.969.9-1.768,1.444-2.541.562-.798,1.092-1.553,1.287-2.39.076-.326.07-.487.063-.545-.011-.001-.115-.044-.313-.089-.569-.13-1.191-.198-1.791-.264-2.587-.284-4.4-1.712-5.105-4.022-.46-1.505-1.463-1.858-3.484-2.256-3.26-.642-5.795-.004-7.975,2.008-1.129,1.041-2.16,1.89-3.153,2.596-1.236.878-2.231,1.447-3.229,1.845-3.497,1.396-6.431.204-8.053-3.274-.524-1.125-.957-2.286-1.376-3.409-.153-.41-.305-.819-.463-1.226-.914-2.37-2.59-3.41-5.251-3.273-1.726.089-3.501.336-5.218.576-3.358.468-6.896.305-11.152-.508-3.06-.585-5.347-2.231-6.993-5.033-.434-.739-.773-1.506-1.101-2.249l-.233-.523c-.61-1.354-1.581-2.158-3.15-2.606-2.241-.64-4.549-1.447-7.057-2.467-4.059-1.651-6.273-4.772-6.405-9.025-.067-2.167-.409-3.759-1.107-5.16-.839-1.686-1.704-2.507-2.985-2.837-.995-.256-1.996-.608-2.976-1.047-4.296-1.925-5.77-4.946-6.251-7.142-.702-3.211.299-6.849,2.612-9.493.772-.882,1.649-1.635,2.497-2.362.286-.245.573-.491.854-.741,2.43-2.161,3.157-4.531,2.287-7.458-.832-2.806-1.645-5.827-2.558-9.509-1.273-5.137-1.333-5.721.411-9.832-.987-.804-1.716-1.806-2.427-2.784-.178-.245-.356-.49-.539-.732-2.073-2.746-4.247-4.907-6.646-6.604-1.202-.851-1.262-.773-2.019.142-.447.541-.867,1.105-1.287,1.669-.448.6-.911,1.221-1.407,1.819-.997,1.203-2.384,1.556-3.704.947-1.185-.546-1.812-1.771-1.561-3.048.453-2.299,0-4.484-1.47-7.087-.87-1.541-.994-3.175-1.114-4.755l-.041-.527c-.144-1.752-.358-3.541-.565-5.27-.138-1.152-.275-2.303-.395-3.457-.315-3.023-1.633-5.215-4.031-6.7-.608-.377-1.161-.801-1.696-1.211-.252-.193-.504-.387-.76-.573-1.576-1.149-2.453-2.459-2.681-4.006-.316-2.149-1.15-3.904-2.551-5.367-.719-.75-1.122-1.735-1.445-2.526-.683-1.671-.354-2.806.042-3.464.403-.668,1.274-1.503,3.131-1.685.671-.066,1.327-.065,1.964-.064.521.001,1.015.001,1.494-.034,2.951-.215,5.362-.899,7.373-2.091,1.714-1.016,1.954-1.626,1.283-3.262-1.358-3.316-.699-6.238,2.014-8.935.604-.601,1.191-1.222,1.778-1.843,1.21-1.28,2.461-2.603,3.867-3.756,1.726-1.416,3.438-2.051,5.084-1.888,1.708.169,3.273,1.148,4.783,2.992.7.855,1.324,1.759,1.929,2.634.413.598.826,1.196,1.263,1.776.107.142.19.238.251.301.101-.077.259-.216.487-.461.157-.168.294-.354.434-.538.147-.193.294-.386.452-.57,1.995-2.321,4.599-3.285,7.734-2.867.405.054.811.112,1.216.171,1.217.175,2.367.341,3.524.393.079.002.112-.02.135-.041.055-.051.089-.143.092-.253.017-.612-.082-1.268-.187-1.963-.037-.243-.074-.486-.106-.728-.049-.378-.116-.755-.182-1.131-.135-.765-.274-1.557-.295-2.387-.038-1.516.565-2.423,1.079-2.917.758-.73,1.833-1.073,3.093-.992,1.729.111,3.184.749,4.648,1.45,3.465,1.66,6.548,3.738,9.364,5.737q2.591,1.84,4.585-.778c1.645-2.166,2.961-4.739,4.264-8.342.083-.23.158-.468.232-.706.235-.748.5-1.595,1.038-2.322l.515-.696c2.329-3.146,4.736-6.398,7.329-9.436,2.235-2.621,5.234-4.111,8.133-5.553l.805-.401c.487-.245.973-.409,1.442-.567.306-.103.613-.205.907-.333q1.283-.56.863-1.831c-.152-.461-.316-.919-.48-1.377-.391-1.092-.795-2.22-1.05-3.405-.282-1.312-.413-2.789-.409-4.65.005-4.402,2.127-7.31,5.976-8.189,1.873-.427,2.929-1.46,3.766-3.684l.214-.573c.389-1.045.791-2.125,1.295-3.169,1.895-3.919,4.83-5.523,9.242-5.044,3.922.425,8.309,1.421,11.114,5.58.107.158.304.333.526.518.165-.093.322-.183.478-.276,3.034-1.829,5.403-1.603,7.68.737.747.767,1.327,1.635,1.888,2.475.187.279.373.557.564.83.301.43.585.876.868,1.322.502.791.976,1.538,1.542,2.161,1.842,2.03,4.107,2.744,6.722,2.127.992-.234,2.016-.545,3.133-.952,1.473-.536,2.426-1.478,2.913-2.877.38-1.093.781-2.178,1.195-3.259,1.434-3.753,4.378-6.281,8.751-7.514,3.435-.97,6.366-.159,8.469,2.343.325.387.738.746,1.174,1.126l.095.083c.216.189.442.384,1.038-.067.382-.29.747-.604,1.111-.918.498-.429,1.013-.872,1.583-1.273,2.12-1.492,4.137-1.664,5.994-.51,1.136.706,2.283.699,3.958-.02l.506-.22c.589-.257,1.198-.522,1.834-.749,4.661-1.661,7.472-.813,10.375,3.127l.067.088c.111.146.22.295.307.454,2.816,5.099,7.314,7.296,14.586,7.121,2.29-.055,4.986-.03,7.629.567,1.736.392,2.792,1.74,2.692,3.433-.265,4.489,1.456,8.427,3.278,12.597.321.735.642,1.47.951,2.208.115.274.24.543.363.811.715,1.547,1.603,3.473.424,5.809-.091.18.242.844.422,1.201.078.156.155.309.224.459.896,1.93,1.848,3.88,2.768,5.766l.838,1.721c.93,1.912,1.842,4.005,2.213,6.353.167,1.055-.232,2.175-1.016,2.854-.649.561-1.471.743-2.257.499-1.411-.438-2.478-.097-4.07,1.308-1.128.996-2.476,1.439-3.666,1.829-.247.081-.494.162-.739.248-1.329.466-2.502.921-3.395,1.775-.718.686-2.882,3.112-.597,5.545,1.045,1.112,2.094,2.219,3.144,3.326l1.565,1.651c.267.283.543.56.819.837.657.661,1.337,1.345,1.935,2.124.9,1.174,1.194,2.222.897,3.205-.46,1.524-2.207,2.122-2.781,2.319-.161.055-.289.102-.391.141,0,.003.002.006.004.009,1.169,2.588,2.493,5.521,2.764,8.786.202,2.431.507,6.105-3.789,7.748-.674.257-1.329.852-1.091,3.31.174,1.788.591,3.625.995,5.401l.155.68c.053.234.213.945,1.446,1.276,1.548.415,2.921.73,4.196.964,2.202.405,3.631,1.683,4.131,3.697.796,3.201,2.187,5.799,4.254,7.945,1.363,1.415,1.109,3.08.924,4.295-.023.153-.046.307-.067.462-.132.979.094,1.765.62,2.158.559.418,1.438.407,2.409-.029.277-.124.55-.26.823-.395.629-.311,1.278-.632,2.002-.856,2.774-.858,5.201-.465,7.212,1.17,1.536,1.248,2.73,2.198,3.446,2.151.674-.048,1.751-1.004,3.452-2.56,1.296-1.184,3.383-2.671,6.522-1.914,2.157.52,4.221-.301,6.406-1.171.445-.177.886-.353,1.327-.517.275-.103.549-.209.822-.315,1.11-.43,2.256-.875,3.534-1.088,2.878-.479,4.829-1.593,6.144-3.507.301-.438.672-.877,1.103-1.305,3.176-3.154,5.944-3.629,9.874-1.693,1.26.621,2.452,1.364,3.605,2.082.287.179.573.357.862.534.049-.132.096-.339.161-.672.056-.291.121-.622.232-.95,2.091-6.138,6.209-9.923,12.24-11.248,2.031-.446,3.667-.855,5.145-1.284,4.772-1.388,9.188-.481,13.118,2.699l.499.406c.595.486,1.156.945,1.746,1.365.022.016.042.027.058.036.311-.799.526-1.486.675-2.139.75-3.29,2.969-5.452,6.595-6.427,2.278-.613,4.997-1.151,7.884-.495.466.106.721.163,1.141-.802.72-1.651,1.572-3.162,2.532-4.492,1.923-2.665,3.67-3.22,6.93-2.205.661.206,1.664.519,1.906.461.118-.073.395-.495.806-1.247,1.01-1.846,1.897-3.83,2.755-5.748.252-.562.503-1.124.758-1.684,1.383-3.038,3.116-3.801,6.182-2.725,2.065.726,3.74,1.877,4.977,3.421,1.573,1.961,3.631,2.537,6.674,1.866,1.715-.378,3.252-.753,4.698-1.145,5.918-1.605,11.198-1.064,16.144,1.654.797.438,1.587.713,2.284.796,4.421.523,7.468,2.911,9.057,7.097.049.128.093.225.13.298.079-.056.181-.139.308-.258,2.737-2.566,4.592-5.923,6.116-8.868.259-.5.511-1.004.764-1.508.775-1.546,1.576-3.144,2.56-4.633,1.403-2.122,2.918-2.608,3.943-2.642,1.013-.032,2.547.344,4.06,2.335.528.695.951,1.449,1.324,2.114.009.016.018.031.027.047,7.162-4.415,13.631-1.577,19.02,1.792l.632.401c1.387.885,2.585,1.649,4.029,1.803,4.135.44,7.1,2.687,8.815,6.678.204.472.387.842.579,1.163.331.555.5.457.714.336,1.069-.607,2.078-1.305,3.146-2.044l.437-.302c.395-.272.776-.566,1.157-.859.664-.51,1.348-1.036,2.118-1.478,1.588-.911,3.219-1.141,4.714-.666,1.531.486,2.766,1.659,3.57,3.392.809,1.742.899,3.505.924,5.309.013.897-.133,1.778-.273,2.629-.229,1.387-.426,2.584.085,3.455.649,1.103,1.784,2.019,2.987,2.989.562.453,1.142.921,1.686,1.421l.351.336q3.127,2.875,7.085.79c.322-.17.641-.348.959-.526.69-.385,1.404-.784,2.17-1.112,3.315-1.418,5.694-.547,7.272,2.661,1.372,2.789,2.154,5.812,2.325,8.984.133,2.492.249,5.134.344,7.854.045,1.298.618,1.537,1.151,1.66,3.401.781,5.169,3.139,6.214,5.228l1.18-.428c1.622-.59,3.187-1.159,4.755-1.717,3.678-1.31,7.51-1.424,11.388-.338,3.82,1.07,5.073,3.068,4.325,6.896-.845,4.329-1.426,8.724-1.774,13.437-.19,2.561-.198,5.302,1.016,7.998.766,1.701,1.405,3.466,2.021,5.173.322.89.644,1.781.984,2.663,1.893,4.913.988,9.142-2.687,12.57l-.235.218c-.521.484-1.012.942-1.478,1.426-.095.099-.225.234.02.553.664.865,1.373,1.678,2.123,2.538,1.309,1.502,2.664,3.055,3.738,4.88.173.294,1.022.661,1.53.88l.306.133c3.349,1.478,4.788,4.238,4.053,7.772-.393,1.893-.231,3.377.524,4.812.464.882.885,1.242,1.609,1.377.686.127,1.369.275,2.053.422,1.094.236,2.128.459,3.18.603,5.07.697,9.159,2.932,12.155,6.642.35.434.729.879,1.14,1.196.135.104.207.113.208.113-.012-.002.038-.036.105-.125.804-1.065,1.529-2.189,2.133-3.147.39-.619.762-1.248,1.134-1.878.536-.907,1.09-1.845,1.697-2.749,1.409-2.097,3.484-4.42,7.103-3.903.006-.067.009-.148.007-.245-.017-.76-.353-1.412-1.057-2.05-2.111-1.911-1.882-4.333-1.448-6.23,1.584-6.925,9.246-11.82,16.081-10.27,1.17.266,1.376.168,1.396.156.177-.109.527-.807.836-1.423.362-.721.711-1.449,1.06-2.177.776-1.62,1.58-3.296,2.52-4.889,1.336-2.265,2.879-3.388,4.54-3.359,1.703.036,3.215,1.27,4.494,3.666.219.41.335.824.434,1.212.076.296.185.503.3.568.07.04.362.15,1.164-.087,1.049-.31,2.193-.706,3.602-1.247.424-.163.838-.355,1.253-.547.795-.366,1.615-.745,2.526-.966.682-.165,1.176-.489,1.701-1.118.38-.453.769-.856,1.159-1.199,2.855-2.507,6.582-3.49,10.226-2.698,3.62.787,6.583,3.216,8.129,6.663.837,1.866,1.577,3.16,2.882,4.25,1.101.92,1.752,2.195,2.382,3.428.176.345.352.689.536,1.019,1.1,1.965,2.474,4.227,4.319,6.096.759.769,1.262,1.009,1.916.919l7.158-.98c3.991-.545,7.981-1.09,11.97-1.646-.081-.036-.16-.073-.237-.111-.95-.475-1.947-.926-2.912-1.361-1.086-.491-2.21-.998-3.303-1.556-3.333-1.704-6.285-4.058-8.774-6.997-.795-.939-1.485-1.98-2.053-3.096-.55-1.084-.6-2.355-.134-3.402.392-.882,1.103-1.502,2.001-1.745,2.035-.55,3.264-1.847,4.484-3.625.753-1.097,1.965-1.826,3.162-2.452,2.946-1.539,4.818-3.977,5.722-7.453.101-.39.187-.712.292-1.028.613-1.835,1.165-2.986,2.175-3.438.391-.175,1.022-.311,1.821.031,1.958.842,1.769,2.619,1.678,3.473-.024.234-.048.455-.041.623.059,1.431.344,1.715,1.444,2.086,1.385.466,2.824.617,4.275.447,6.834-.798,13.271,1.013,19.276,2.936.769.246,1.587.514,2.406.848,1.782.727,2.384.335,2.93-.697.344-.65.911-1.07,1.366-1.406.777-.576,1.749-.765,2.722-.556.973.21,1.786.788,2.231,1.586.452.809.894,1.692,1.064,2.657.736,4.208,2.234,8.133,4.569,11.977.054,0,.108-.001.162-.004,3.434-.141,5.464-1.471,6.791-4.447.979-2.196,2.673-4.338,5.18-6.547,2.933-2.585,6.163-3.73,9.874-3.5,6.064.375,13.137,1.377,19.61,5.955,4.78,3.38,7.464,7.588,8.206,12.865l.02.074c.039.152.074.305.089.46.09.971.278,2.982.701,3.315.398.313,2.267.038,3.769-.183.55-.081,1.118-.251,1.719-.432.327-.098.655-.197.984-.283,1.485-.389,2.982-.449,4.446-.181,2.92.535,4.309,2.23,4.129,5.039-.17,2.659-.448,5.344-.716,7.94-.098.945-.195,1.889-.289,2.834-.056.573-.13,1.146-.205,1.718-.136,1.056-.266,2.053-.283,3.046-.01.583.067.852.109.953.103.003.359-.015.85-.197.541-.201,1.111-.426,1.609-.707,2.549-1.434,5.135-1.685,7.683-.747,1.257.463,1.566.179,1.926-.342,2.034-2.937,4.778-3.785,7.934-2.456,1.128.475,2.154.133,3.544-.618,3.238-1.75,6.767-2.418,10.18-3.064,3.109-.588,4.493.327,5.294,3.497.28,1.11.758,1.524,1.97,1.706,2.187.329,4.324.592,6.395.205,1.854-.347,3.605-.001,4.922.339,1.431.369,2.42,1.071,2.938,2.085.528,1.033.51,2.284-.053,3.717-.725,1.849-1.704,3.333-2.991,4.535-.229.214-.463.426-.696.637-.395.357-.775.702-1.13,1.055.242.072.492.126.727.143,5.824.415,10.817-1.581,15.26-6.102.675-.687.652-1.028.558-1.374-.403-1.48-.282-3.049.363-4.662.862-2.161,2.905-3.4,5.219-3.154,1.984.211,3.354,1.801,3.188,3.699-.158,1.787-.72,3.384-1.673,4.745-.376.538-.397,1.08-.08,2.146.824,2.769,1.595,5.596,2.34,8.33l.566,2.074c.306,1.111.622,2.076,1.397,2.626,2.721,1.93,4.348,4.113,4.945,6.644.116-.082.246-.197.417-.351.188-.169.375-.334.571-.478.241-.175.47-.367.699-.559.408-.34.83-.693,1.329-.996,1.293-.785,2.778-.85,3.971-.173,1.144.648,1.822,1.881,1.813,3.299-.007,1.1-.198,2.16-.384,3.185l-.075.422c-.27,1.526-.565,3.047-.86,4.569l-.329,1.711c-.133.69-.017,1.335.972,2.239.795.726,1.82,1.149,2.905,1.596.833.344,1.694.699,2.513,1.215,1.125.708,1.682,1.789,2.173,2.743.525,1.02.883,1.66,1.603,1.967.848.362,1.558.939,2.185,1.449l.139.113c2.54,2.056,3.039,4.337,1.573,7.178-.825,1.6-2.06,3.012-3.885,4.444-5.259,4.123-11.308,7.003-18.493,8.804-1.965.492-3.874.376-5.32.219-2.868-.311-5.651.317-8.596.983l-.667.15c-.155.035-.253.069-.313.095.003.084.021.237.089.49.216.81.404,1.51.684,2.134.96,2.141,1.715,4.486.744,7.12-.991,2.691-2.408,5.716-5.41,7.753-3.627,2.462-7.682,3.448-12.051,2.931-1.187-.14-2.351-.395-3.377-.619-.119-.026-.238-.052-.355-.077.029.087.067.187.094.26.049.129.096.256.136.381.586,1.862.577,3.843-.027,6.056-1.557,5.692.135,10.978,5.323,16.637,3.16,3.446,2.199,6.113.69,8.481-.575.901-1.256,1.7-1.914,2.473-.421.494-.818.96-1.185,1.446-.99,1.312-1.071,1.819-1.031,2.004.039.184.32.609,1.755,1.392.18.098.363.193.546.288.573.296,1.165.603,1.725,1.026,1.569,1.187,2.034,3.355,1.104,5.155-1.134,2.194-3.067,3.568-5.911,4.201-.717.159-1.806.31-2.927.121-1.789-.301-2.81.24-3.758,1.999-1.718,3.189-4.398,5.769-8.195,7.888-.949.529-1.129,1.026-.805,2.217.519,1.909,1.002,3.847,1.433,5.76.288,1.28.697,1.997,1.413,2.473,1.829,1.219,2.974,3.09,3.503,5.72.128.639.272,1.251.429,1.819.305,1.109.762,2.765,1.078,3.118.461-.004,1.931-.745,2.915-1.241.216-.109.428-.224.642-.34.527-.285,1.072-.58,1.682-.805,2.249-.832,4.296-.07,5.348,1.984.976,1.906,1.784,3.776,2.399,5.559,1.379,3.986,3.796,6.967,7.606,9.38l1.271.808c3.888,2.477,7.559,4.817,11.762,6.317.616.22,1.108.44,1.547.691.891.512,1.507,1.363,1.689,2.337.17.908-.055,1.802-.633,2.518l-.156.193c-1.392,1.725-2.832,3.509-4.49,5.074-1.244,1.175-1.882,2.361-2.067,3.843-.122.971-.289,1.822-.515,2.602-1.448,5.014-1.217,10.075.685,15.041,1.674,4.371,1.874,8.412.611,12.354-.414,1.296-.173,2.145.835,2.932.892.696,1.627,1.55,2.246,2.296,1.948,2.35,2.682,5.314,2.015,8.134-.672,2.838-2.679,5.178-5.507,6.42-.879.386-1.776.618-2.726.863-.074.019-.148.038-.224.058.29,2.853-.688,5.388-2.918,7.551-3.778,3.663-8.18,4.451-13.085,2.341-.557-.24-1.812-.78-2.267-.815-.234.379-.529,1.651-.693,2.357-.543,2.338-1.06,4.835-.912,7.389.075,1.277-.096,2.527-.263,3.735-.041.294-.081.588-.118.88-.404,3.244-1.718,5.724-4.019,7.581-1.279,1.033-1.244,1.153-.379,2.411l.087.126c1.175,1.71,2.391,3.478,3.361,5.429,1.601,3.215,2.319,6.094,2.263,9.06-.071,3.698.565,6.646,2.001,9.277,1.946,3.565.456,5.797-1.444,7.677-1.782,1.764-3.918,2.911-5.983,4.021-.583.313-.549.392-.407.725.58,1.356.536,2.821-.13,4.356l-.919,2.126c-.971,2.251-1.976,4.579-3.015,6.853-.409.895-1.263,1.518-2.342,1.708-1.168.205-2.367-.156-3.14-.942-.874-.887-1.599-1.89-2.267-2.84-2.217-3.152-5.36-4.898-9.891-5.494-1.957-.257-2.54.039-3.469,1.763-.309.574-.574,1.181-.854,1.824-.242.555-.492,1.128-.779,1.692-.358.705-1.027,1.166-1.836,1.266-.878.108-1.767-.235-2.338-.893-.475-.547-.676-1.174-.838-1.678-.02-.06-.038-.116-.055-.168-.065.231-.133.457-.22.662-.304.721-.554,1.466-.819,2.255-.258.769-.525,1.564-.849,2.345-.722,1.744-1.715,2.79-2.95,3.11-1.211.314-2.537-.096-3.944-1.215-.301-.239-.56-.503-.788-.736-.214-.218-.416-.424-.609-.567-2.216-1.634-3.67-1.619-5.982.056-1.8,1.304-3.777,2.289-6.043,3.01-2.637.839-4.908,2.421-6.944,4.836-1.885,2.236-3.582,4.585-5.046,6.981-.355.582-.728,1.153-1.1,1.724-.342.524-.684,1.048-1.012,1.581-1.709,2.783-4.22,3.8-7.274,2.939-.87-.246-1.778-.463-2.656-.672-.693-.166-1.387-.331-2.076-.513-3.655-.964-7.122-1.123-10.601-.485-4.543.833-10.555,1.774-16.807,1.639-1.593-.032-3.275.324-4.992.726-1.748.41-2.715,1.512-2.958,3.37-.123.943-.169,1.993-.14,3.213.051,2.202-.285,4.456-.998,6.698-.541,1.702-1.871,2.991-3.555,3.448-1.7.461-3.519.015-4.864-1.196-.524-.471-.912-1.004-1.289-1.519-.225-.308-.438-.599-.66-.85-.179-.201-.356-.405-.534-.609-.665-.764-1.293-1.485-2.003-2.04-2.329-1.821-3.286-1.784-5.682.224-.184.154-.359.321-.534.487-.306.29-.622.591-1.001.866-1.569,1.141-3.496.964-4.794-.444-.376-.408-.707-.835-1.027-1.247-.376-.485-.73-.943-1.122-1.322-.751-.728-1.216-.936-2.515.132-.175.144-.346.294-.517.443-.467.408-.949.831-1.53,1.182-1.551.94-3.553.563-4.753-.898-.374-.455-.76-.951-1.003-1.568-1.055-2.675-3.159-4.153-7.036-4.943-1.02-.208-2.039-.42-3.059-.633-3.859-.804-7.849-1.636-11.789-2.19-5.522-.776-11.065-1.833-16.425-2.856l-1.499-.286c-.238-.045-.478-.095-.716-.145-1.558-.327-2.562-.494-3.542.162-.621.417-1.402.401-1.811.353-1.341-.155-2.361-.838-2.948-1.975-.651-1.26-.394-2.706.611-3.439,1.024-.747.962-1.595.736-3.289l-.052-.393c-.8-6.335-4.224-10.314-10.468-12.164-3.849-1.14-7.085-1.709-10.371-.781-.835.236-1.668.326-2.474.413-.209.023-.418.045-.625.07-3.33.405-5.497-.812-6.443-3.613-.085-.249-.355-.567-.591-.819-.046.131-.104.277-.184.428-1.568,2.922-2.233,3.268-5.467,2.85-.339-.044-.759-.099-1.18-.23-2.106-.653-3.613.059-5.04,2.383-.165.27-.316.581-.475.911-.515,1.067-1.156,2.394-2.756,3.027-1.903.751-3.703.34-5.293-.023-.25-.057-.5-.114-.748-.166-1.118-.234-2.15-.566-3.064-.988-1.583-.73-2.009-.72-2.1-.7-.132.125-.432.926-.673,1.57-.088.235-.182.486-.285.752-1.027,2.651-1.733,4.287-3.255,4.527-1.391.22-2.518-.897-4.096-2.804-.296.411-.476.99-.696,1.757l-.029.103c-.384,1.338-.718,2.73-1.042,4.076l-.266,1.1c-.917,3.76-3.307,6.193-7.106,7.232-.565.154-1.127.262-1.671.365-.727.138-1.413.269-2.029.496-.803.295-1.329.765-1.479,1.323-.162.599.081,1.33.683,2.058.448.541.925,1.054,1.431,1.598.28.301.56.602.835.907,4.427,4.926,6.951,10.663,7.502,17.055.126,1.469.238,2.939.345,4.41.02.283.062.571.103.859.174,1.229.413,2.911-.868,4.333-1.038,1.154-2.372,1.123-3.342,1.101-.394-.009-.768-.018-1.038.05-.197.049-.395.093-.595.137-.261.057-.523.113-.779.19-.41.123-.702.303-.782.482-.067.15-.019.416.131.732,1.439,3.043,3.071,6.248,5.25,9.074,1.67,2.166,2.67,4.106,3.146,6.106.214.899.448,2.086.347,3.294-.227,2.707-1.809,4.604-4.454,5.342-.445.125-.82.199-1.181.235-3.87.379-3.944.386-4.167,5.169l-.02.432c-.06,1.351-.123,2.747-.391,4.129-.701,3.618-3.019,4.383-4.85,4.383ZM716.864,498.836h0ZM421.972,436.335h0ZM526.155,17.229s0,0,0,0c0,0,0,0,0,0Z"/><path class="z" d="M885.335,144.886c-2.793,0-5.044-1.032-6.866-3.144-.875-1.014-1.666-2.088-2.259-2.91-.436-.605-.844-1.238-1.317-1.97-.065-.101-.132-.205-.2-.311-1.612,1.039-3.293.877-4.469.763-1.607-.155-2.954.301-4.223,1.436-.793.71-1.621,1.323-2.46,1.819-.804.476-2.343.968-3.631-1.083-.106-.168-.194-.351-.279-.534-.066-.142-.129-.277-.19-.36-.203-.28-.319-.225-.396-.189-.954.449-1.909.975-2.832,1.484l-.295.162c-1.413.777-2.971,1.509-4.8,1.608-1.902.103-3.334-.573-4.252-2.012-.15-.235-.298-.472-.445-.708-.366-.586-.711-1.139-1.092-1.674l-.23-.325c-.466-.662-.906-1.287-1.432-1.778-1.399-1.306-2.79-1.698-4.376-1.238-.756.22-1.566.406-2.548.586-2.636.483-4.73.19-6.592-.922-.755-.451-1.512-.708-2.314-.786-1.45-.142-1.628-.107-2.168,1.399-.403,1.123-.965,1.906-1.769,2.465l-.59.411c-1.943,1.355-3.953,2.756-5.971,4.082-.679.446-1.503.82-2.52,1.142-1.391.441-2.681.133-3.633-.868-.046-.049-.095-.095-.144-.142-.136-.131-.291-.279-.433-.474-1.771-2.428-4.349-3.704-7.078-5.055-.564-.279-1.129-.559-1.685-.848-.325-.169-.703-.148-1.291-.099l-.32.025c-2.171.146-3.845.235-5.426.288-.769.026-1.64.056-2.467-.207-.542-.172-1.046-.418-1.533-.656-.665-.325-1.294-.632-1.851-.658-.535-.024-1.148.207-1.805.452-.564.21-1.147.428-1.777.531-1.866.307-3.644-.202-5.138-1.472l-.127-.107c-.26-.218-.555-.464-.8-.791-.676-.9-1.013-.886-1.688-.382-1.246.932-2.683.891-3.795.75-2.151-.273-2.611-.438-4.532-2.093-.235.231-.445.524-.675.843-.222.31-.452.63-.735.934-1.227,1.321-2.459,2.639-3.702,3.946-1.698,1.787-3.918,2.309-6.597,1.552-2.137-.605-4.047-1.689-5.675-3.223-2.372-2.234-4.8-4.689-6.157-7.95-.274-.66-.37-.619-.687-.488-.181.075-.352.107-.477.131-3.338.654-5.949-.468-7.808-3.326-1.708-2.626-3.453-5.504-4.646-8.758q-.556-1.514-2.276-1.546c-1.15-.023-2.275.213-3.449.717-2.02.867-5.057,1.808-8.114-.014-.108-.014-.324.115-.468.199l-.223.128c-1.485.823-2.531,1.336-3.526.972-1.006-.369-1.475-1.441-2.127-3.164-.041-.108-.085-.215-.128-.322-.101-.247-.2-.495-.278-.75-.216-.718-.507-.983-1.242-1.133-2.06-.421-2.362-1.239-2.259-2.913.046-.74.096-1.48.147-2.22.081-1.174.162-2.349.221-3.524.007-.141.004-.239-.002-.306-.047-.002-.11-.003-.192.001-.475.023-1.096.062-1.692.157-5.113.813-9.982.154-15.36-.721-2.213-.36-3.975-1.103-5.385-2.269-1.499-1.239-2.144-2.627-1.972-4.243.036-.333.063-.668.091-1.003.072-.882.145-1.793.371-2.692.309-1.235.896-2.117,1.744-2.623.859-.513,1.936-.609,3.207-.286.113.029.223.073.33.121,1.928.562,2.059.461,2.904-.794.484-.72.96-1.493,1.159-2.266.245-.947.553-1.877.85-2.777.706-2.135,1.373-4.151,1.254-6.347-.056-1.037.281-1.919.949-2.483.707-.598,1.716-.788,2.836-.536,1.237.278,2.34.689,3.279,1.221,1.02.578,2.145.798,3.644.713,1.526-.086,2.791-.184,4.011-.599.954-.324,1.909-.646,2.864-.968,2.191-.738,4.457-1.502,6.673-2.28,1.327-.466,2.131-1.176,2.535-2.235.593-1.559,1.55-2.739,2.844-3.507.144-.086.363-.216.242-.909-.049-.283-.111-.565-.173-.846-.093-.422-.189-.859-.249-1.313-.154-1.172-.25-2.561.211-3.987.527-1.632,1.724-2.511,3.302-2.469,1.178.029,2.346.199,3.347.357,1.616.254,3.315.329,5.194.23.578-.031.685-.191.714-.658.025-.409.078-1.023.25-1.622.202-.703.693-1.275,1.313-1.53.567-.232,1.183-.19,1.737.122.762.429,1.312.368,2.354-.259.533-.321,1.088-.566,1.624-.804.344-.153.69-.305,1.023-.477,1.247-.645,1.8-1.278,1.908-2.184.168-1.424.922-2.467,2.017-2.79.995-.294,1.417-.986,1.89-2.244.732-1.946,1.403-3.452,2.807-3.673,1.139-.178,2.27.559,3.785,2.467.77.968,1.804,1.44,2.999,1.36,3.007-.198,5.729.729,8.306,2.835.016.013.044.029.079.046.114-.159.215-.311.283-.455.748-1.577,1.94-2.511,3.866-3.028,3.316-.89,5.139-3.971,4.433-7.491-.222-1.104-.264-2.378,1.1-3.446,1.177-.922,2.026-2.23,2.597-3.999.394-1.222.293-1.948-.385-2.775-1.51-1.84-1.418-3.345.308-5.033.374-.366.776-.676,1.164-.976.19-.147.381-.294.565-.447,2.165-1.789,3.137-3.715,3.059-6.062-.005-.141,0-.283.005-.425.003-.099.008-.197.004-.295-.058-1.733.863-2.905,2.737-3.483,1.828-.564,3.469-.75,5.015-.57,1.89.22,3.826.529,5.754.919,1.297.262,2.247.94,2.674,1.907.43.973.289,2.142-.399,3.289-.312.52-.669.993-1.015,1.451-.312.413-.607.803-.857,1.21-.498.808-.701,1.397-.604,1.752.088.319.482.664,1.171,1.025,2.938,1.537,5.288,3.689,7.186,6.581,1.061,1.617,2.531,2.865,4.494,3.816l.374.179c.324.153.649.307.962.479,2.992,1.644,4.767,3.729,3.703,8.562-.313,1.426-.915,2.779-1.462,3.914-1.483,3.079-1.458,5.751.081,8.409,1.598,2.762,1.889,5.767,1.962,8.077.023.698.098.866.121.901-.001-.004.176.065.877.071,1.117.01,2.3-.09,3.433-.187l.071-.006c.248-.021.515-.079.797-.14.305-.066.62-.134.96-.169l.209-.023c.834-.095,2.229-.253,2.978,1.164.866,1.637-.443,2.73-1.072,3.255-.17.142-.323.261-.476.379-.224.173-.436.337-.616.509-.061.058-.102.104-.129.14,1.689,1.57,1.201,3.618.967,4.602-.345,1.449-.492,2.585-.477,3.686.008.581.224.934.722,1.179,1.895.934,3.956,1.681,6.175.84l.279-.108c.375-.146.763-.298,1.186-.404,1.323-.333,2.392-.207,3.177.374.795.59,1.234,1.604,1.302,3.016.037.751.033,1.504.029,2.233-.005.842-.009,1.638.044,2.436.124,1.858.911,2.733,2.717,3.02,2.241.356,4.031.285,5.629-.225,1.126-.359,2.144-.676,3.194-.914,2.373-.539,2.912,1.477,3.088,2.14.227.859.479,1.117.557,1.144.062.023.353-.015.918-.44.506-.38.98-.807,1.481-1.258.216-.194.432-.389.651-.58,2.112-1.843,4.59-3.376,7.573-4.685,1.592-.699,3.311-1.169,5.109-1.398,2.517-.321,4.393.504,5.577,2.45,1.179,1.938,3.185,2.842,5.308,3.8,2.175.981,4.311.734,6.187-.708.505-.389.985-.805,1.492-1.245.494-.429,1.006-.873,1.542-1.288.606-.469,1.387-.607,2.086-.37.697.236,1.23.815,1.425,1.549.114.428.174.85.231,1.257.06.421.117.819.227,1.172.384,1.225.638,1.387,1.833,1.143,2.746-.56,5.544-1.074,8.251-1.57,1.149-.211,2.298-.422,3.446-.637.151-.028.302-.061.453-.093.206-.044.411-.087.619-.123,1.692-.296,3.076.36,3.999,1.897.815,1.355,1.412,2.922,1.775,4.657.546,2.612,2.063,4.439,4.775,5.752.29.14.577.284.865.428.457.229.915.459,1.38.67,5.026,2.285,7.36,7.391,5.806,12.705-.737,2.521-1.822,4.956-3.318,7.446-.171.285-.349.568-.526.85-1.116,1.779-2.08,3.316-1.531,5.361.173.645-.072,1.322-.638,1.767-.659.518-1.563.614-2.249.24-.308-.169-.552-.387-.769-.597-.785-.758-1.653-.847-2.998-.304-.898.362-1.792.734-2.685,1.106-.657.274-1.315.547-1.974.817l-.153.063c-1.221.497-1.87.802-2.118,1.773-.336,1.31-1.452,1.975-2.35,2.51l-.092.054c-.865.516-1.801,1.045-2.861,1.615-2.228,1.198-4.007,2.827-5.438,4.979-2.735,4.11-6.75,6.328-11.934,6.591-.203.01-.403.015-.601.015ZM825.917,64.576h0Z"/></g></g><g id="c"><g class="u"><path class="s" d="M178.499.915s-1.428-.122-4.947.518c-1.98.361-5.392,1.085-10.224,2.147-3.054.671-12.209,2.715-12.209,2.715-4.062.939-8.136,1.822-12.188,2.807-4.045,1.019-8.111,1.945-12.138,3.04-16.145,4.219-32.137,9.13-47.823,14.988-15.686,5.849-31.069,12.652-45.892,20.656-3.688,2.037-7.418,3.989-11.023,6.189l-5.45,3.217c-1.802,1.099-3.572,2.258-5.359,3.384-1.779,1.131-2.488,1.611-4.103,2.651-1.214.782-2.272,1.936-2.972,3.233-.595,1.103-1.163,2.233-1.476,3.278-3.246,9.069-2.018,23.572-2.025,28.396-.003-5.735-1.077-20.395,1.795-28.525.3-1.065.952-2.568,1.505-3.527.548-.961,1.677-2.129,2.534-2.784,1.747-1.241,2.743-1.96,4.513-3.132,1.79-1.127,3.562-2.288,5.366-3.389l5.457-3.221c3.611-2.202,7.345-4.158,11.037-6.197,14.842-8.015,30.243-14.825,45.945-20.68,15.703-5.864,31.708-10.779,47.865-15.001,4.03-1.096,8.099-2.023,12.147-3.042,4.055-.986,8.131-1.869,12.196-2.809,0,0,9.198-1.835,12.257-2.486,4.845-1.031,8.277-1.633,10.258-1.98,3.392-.594,4.956-.448,4.956-.448Z"/></g><path class="r" d="M6.615,63.497s13.992-10.239,29.056,6.954c16.484,18.813,10.151,32.736,10.151,32.736,1.985-3.721,4.191-7.463,6.599-11.204,5.297-2.568.253-10.577,7.812-11.195.082-3.644,10.708-16.987,8.908-11.048,3.595-10.281,6.669-10.434,9.888-10.765,1.869,1.059,7.037-6.982,10.752-10.345,2.972-2.69,6.024-5.322,9.145-7.881,13.151,2.814,5.914-3.128,9.564-7.455,3.274-8.761,4.27-4.625,9.923-6.958,2.177,1.837,9.429,1.254,10.223-6.391,7.921.445,7.663-4.891,10.463-5.754,3.06-1.568,5.651-2.926,8.12-4.144,7.408-3.653,13.724-6.039,28.353-9.002C111.663,13.173,57.133,30.901,6.615,63.497Z"/><path class="q" d="M6.615,63.497s13.949-10.084,29.056,6.954c16.589,18.709,10.151,32.736,10.151,32.736,1.488-2.791,3.101-5.593,4.831-8.398.865-1.403,7.199-5.567,3.613-4.219-1.534,1.785-1.62-.258,1.916-4.194-3.689.233-3.641-.648,3.197-4.325,6.716-2.671.944-.054,2.982-4.044,2.196-1.975,7.567-2.734,4.441-4.717,4.534,2.857,3.963-4.088,2.339-3.55,2.777-4.202-3.047-10.386,3.541-4.229,7.555-2.383,4.758-1.675,3.79-3.879,5.223,1.09,4.01-3.489,3.857-3.976,2.409-3.678,2.658-4.392,3.976-3.915,1.689-2.017,2.69-3.328,3.653-4.298.963-.969,1.415-1.122,3.424-2.249-.616-2.736,2.66-1.446,3.237-3.778,1.355-.982,3.133-3.842,4.141-2.531,8.497-.656-.502-1.433,3.793-3.054,5.103-3.556.371-3.796,3.857-2.98,2.066,1.588,1.767-1.785,4.211-1.885-4.53,1.128.422-1.412,3.679-3.838-4.521,1.978.309-3.885,4.014-3.045.314,3.486,12.132-2.676,4.085-2.33-1.864-2.609,4.547,2.939,4.118-2.546.325,2.228.963-3.09,4.159-2.445-.646-1.681,1.56-2.103,4.196-2.34,1.168-1.665,2.814-1.506,4.229-2.231,12.24-6.271,16.968-9.196,36.473-13.146C111.663,13.173,56.409,30.64,6.615,63.497Z"/><path class="p" d="M6.615,63.497s13.949-10.084,29.056,6.954c16.589,18.709,10.151,32.736,10.151,32.736,1.488-2.791,3.101-5.593,4.831-8.398.865-1.403,7.199-5.567,3.613-4.219-1.534,1.785-1.62-.258,1.916-4.194-3.689.233-3.641-.648,3.197-4.325,6.716-2.671.944-.054,2.982-4.044,2.196-1.975,7.567-2.734,4.441-4.717,4.534,2.857,3.963-4.088,2.339-3.55,2.777-4.202-3.047-10.386,3.541-4.229,7.555-2.383,4.758-1.675,3.79-3.879,5.223,1.09,4.01-3.489,3.857-3.976,2.409-3.678,2.658-4.392,3.976-3.915,1.689-2.017,2.69-3.328,3.653-4.298.963-.969,1.415-1.122,3.424-2.249-.616-2.736,2.66-1.446,3.237-3.778,1.355-.982,3.133-3.842,4.141-2.531,8.497-.656-.502-1.433,3.793-3.054,5.103-3.556.371-3.796,3.857-2.98,2.066,1.588,1.767-1.785,4.211-1.885-4.53,1.128.422-1.412,3.679-3.838-4.521,1.978.309-3.885,4.014-3.045.314,3.486,12.132-2.676,4.085-2.33-1.864-2.609,4.547,2.939,4.118-2.546.325,2.228.963-3.09,4.159-2.445-.646-1.681,1.56-2.103,4.196-2.34,1.168-1.665,2.814-1.506,4.229-2.231,12.24-6.271,16.968-9.196,36.473-13.146C111.663,13.173,56.409,30.64,6.615,63.497Z"/></g><g id="i"><g class="u"><path class="y" d="M1099.283,99.817c-3.956-5.565-8.504-10.516-13.128-15.615-2.201-2.596-4.566-5.124-6.858-7.682-2.411-2.506-4.723-5.057-7.215-7.525-9.821-9.939-20.448-19.506-31.984-28.525-11.537-9.014-23.984-17.488-37.477-25.104-3.389-1.896-6.79-3.781-10.239-5.619-3.447-1.837-6.951-3.628-10.621-5.212-1.817-.811-3.694-1.555-5.667-2.152-1.968-.602-4.045-1.04-6.158-1.371-4.227-.672-8.656-.607-12.937-.044,4.238-.682,8.702-.877,13.04-.315,2.159.275,4.3.661,6.359,1.223,2.06.556,4.024,1.264,5.918,2.036,3.744,1.599,7.246,3.419,10.713,5.256,3.461,1.844,6.867,3.732,10.259,5.63,13.547,7.646,26.034,16.148,37.604,25.188,11.569,9.045,22.222,18.636,32.066,28.599,2.498,2.474,4.815,5.031,7.232,7.543l3.468,3.837c1.161,1.277,2.323,2.553,3.409,3.862,4.348,5.23,8.473,10.549,12.215,15.991Z"/></g><path class="x" d="M956.998.968c21.19-2.724,35.844,8.046,24.886,24.411,3.411.744,14.084,2.979,11.777,2.695,15.042,9.941,4.56-2.182,14.511,4.201,9.324-2.029,9.739-1.982,16.717,6.577-1.481,2.317,1.768,3.895,6.063,5.333s9.634,2.735,12.332,4.49c5.331,1.208,6.041,1.122,9.661,6.401-3.322-.847,7.775,3.592,9.883,7.539,6.124,5.002,11.464,9.828,16.03,14.253,13.698,13.276,20.425,22.949,20.425,22.949,0,0-35.337-50.574-96.334-84.738-16.913-9.473-23.299-12.451-30.097-13.768-5.198-1.007-9.632-1.266-15.853-.343Z"/><path class="o" d="M956.998.968c21.19-2.724,35.844,8.046,24.886,24.411,3.411.744,14.084,2.979,11.777,2.695,15.042,9.941,4.56-2.182,14.511,4.201,9.324-2.029,9.739-1.982,16.717,6.577-1.481,2.317,1.768,3.895,6.063,5.333s9.634,2.735,12.332,4.49c5.331,1.208,6.041,1.122,9.661,6.401-3.322-.847,7.775,3.592,9.883,7.539,6.124,5.002,11.464,9.828,16.03,14.253,13.698,13.276,20.425,22.949,20.425,22.949,0,0-35.337-50.574-96.334-84.738-16.913-9.473-23.299-12.451-30.097-13.768-5.198-1.007-9.632-1.266-15.853-.343Z"/></g></g></g></svg>