<?xml version="1.0" encoding="UTF-8"?><svg xmlns="http://www.w3.org/2000/svg" width="1100.327" height="89.788" xmlns:xlink="http://www.w3.org/1999/xlink" viewBox="0 0 1100.327 89.788"><defs><style>.l{fill:none;}.m{fill:url(#k);}.n,.o{fill:url(#d);}.p{opacity:.75;}.p,.q,.r{mix-blend-mode:multiply;}.q{opacity:.7;}.q,.s{fill:#f8efd7;}.t{isolation:isolate;}.u{fill:#fff;}.o{filter:url(#e);}.v{fill:url(#h);filter:url(#i);}.w{fill:#878787;}.x{clip-path:url(#b);}</style><clipPath id="b"><path class="l" d="M1032.228-580.044c44.802,33.33,68.831,66.971,68.831,66.971V-1.555s2.104,25.277-66.507,45.041c-41.679,13.815-204.437,45.948-204.437,45.948H118.521s-48.149-27.4-69.31-41.817C27.903,33.099.741,29.587.983.552c0-32.782,0-525.775,0-531.298,1.339-19.378,1.942-19.304,38.43-37.318,38.892-24.792,139.024-44.951,139.024-44.951h791.394s10.619-1.755,62.397,32.971Z"/></clipPath><linearGradient id="d" x1="-106.092" y1="1245.46" x2="-80.254" y2="1283.314" gradientTransform="translate(1069.892 -1201.214) rotate(.184)" gradientUnits="userSpaceOnUse"><stop offset=".695" stop-color="#f8efd5"/><stop offset=".912" stop-color="#c5bd97"/><stop offset="1" stop-color="#b0a87e"/></linearGradient><filter id="e" x="806.049" y="-15.185" width="307" height="116" filterUnits="userSpaceOnUse"><feOffset dx="-.78" dy="-1.95"/><feGaussianBlur result="f" stdDeviation="3.9"/><feFlood flood-color="#20245c" flood-opacity=".2"/><feComposite in2="f" operator="in"/><feComposite in="SourceGraphic"/></filter><linearGradient id="h" x1="-194.328" y1="1231.424" x2="-158.5" y2="1276.552" gradientTransform="translate(-167.64 -1208.678) rotate(176.826) scale(1 -1)" gradientUnits="userSpaceOnUse"><stop offset="0" stop-color="#f7f0e2"/><stop offset=".311" stop-color="#f7efdd"/><stop offset=".664" stop-color="#f7eecf"/><stop offset=".695" stop-color="#f8eece"/><stop offset=".901" stop-color="#cbc4ab"/><stop offset=".93" stop-color="#c8c1a8"/><stop offset=".949" stop-color="#bfb89f"/><stop offset=".966" stop-color="#b1aa90"/><stop offset=".981" stop-color="#9c967a"/><stop offset=".995" stop-color="#817c5f"/><stop offset="1" stop-color="#777254"/></linearGradient><filter id="i" x="-7.736" y="-9.97" width="156" height="108" filterUnits="userSpaceOnUse"><feOffset dx=".632" dy="-1.581"/><feGaussianBlur result="j" stdDeviation="3.162"/><feFlood flood-color="#20245c" flood-opacity=".2"/><feComposite in2="j" operator="in"/><feComposite in="SourceGraphic"/></filter><linearGradient id="k" y1="1231.424" x2="-158.5" y2="1276.552" xlink:href="#h"/></defs><g class="t"><g id="a"><path class="u" d="M1032.228-580.044c44.802,33.33,68.831,66.971,68.831,66.971V-1.555s2.104,25.277-66.507,45.041c-41.679,13.815-204.437,45.948-204.437,45.948H118.521s-48.149-27.4-69.31-41.817C27.903,33.099.741,29.587.983.552c0-32.782,0-525.775,0-531.298,1.339-19.378,1.942-19.304,38.43-37.318,38.892-24.792,139.024-44.951,139.024-44.951h791.394s10.619-1.755,62.397,32.971Z"/><g class="p"><g class="x"><path class="s" d="M875.596,62.682c-.77,0-1.628-.227-2.567-.82-1.886-1.191-2.39-3.125-2.759-4.537-.146-.564-.285-1.097-.477-1.483-.72-1.46-1.478-3.032-2.146-4.642-1.864-4.498-5.581-6.107-8.371-6.665-5.177-1.035-11.438.704-14.886,4.136-.39.389-.75,1.094-.916,1.796-.595,2.518-2.19,4.049-3.596,5.4-.292.28-.584.559-.864.849-2.36,2.428-4.432,1.322-5.011.924-1.572-1.079-3.189-.911-5.695-.548-1.125.163-2.306.325-3.508.322l-1.111-.003c-1.315,0-2.66,0-4.027-.125-4.152-.382-6.801-2.815-7.085-6.509-.149-1.947-1.008-2.47-3.884-3.259l-.774-.211c-2.183-.594-4.439-1.208-6.602-2.14-3.091-1.332-4.918-3.981-5.282-7.658-.469-4.718.761-9.304,3.555-13.261,1.025-1.453,3.75-5.311,3.444-6.591-.224-.937-2.794-2.298-5.768-3.874l-.631-.334c-7.537-3.999-12.433-10.672-16.228-16.672-4.3-6.8-3.873-11.772,1.572-18.345,2.034-2.455,4.416-5.365,6.662-8.334,1.647-2.178,1.992-4.116,1.155-6.48-2.682-7.573-1.224-15.153.353-21.664,1.061-4.369,3.112-7.587,6.099-9.566,2.431-1.61,3.706-3.898,4.872-6.838,2.044-5.147,4.397-6.438,10.088-5.533,1.161.186,2.269.48,3.34.765l.888.233c1.178.303,2.361.588,3.544.874,2.834.684,5.764,1.392,8.614,2.336,5.594,1.855,7.744,1.755,9.464-2.476,1.056-2.59,3.849-3.956,7.294-3.563,4.171.475,8.407,1.102,12.386,1.703,2.277.343,4.053,1.788,5.277,4.294.955,1.959,1.858,3.942,2.759,5.927l.406.893c1.149,2.521,2.544,4.419,4.268,5.802,2.524,2.025,4.152,1.601,5.291,1.004,9.862-5.16,17.856-.656,25.027,4.979,3.357,2.638,5.515,6.25,7.602,9.742l.96,1.601c.822,1.367,1.644,2.733,2.449,4.11.661,1.13,1.532,1.617,2.912,1.628.863.007,1.728.036,2.591.065,1.365.046,2.654.089,3.942.047,4.495-.153,8.785.814,12.915,1.748.778.176,1.555.351,2.333.52.608.131,1.246.337,1.951.629,7.274,3.011,10.175,8.882,8.392,16.978l-.04.155c-.155.522-.336,1.087-.526,1.686-.463,1.452-.987,3.097-1.353,4.737-.17.767.044,1.163.79,1.456,5.261,2.067,7.911,1.416,11.35-2.786,3.35-4.092,8.073-5.879,14.515-5.458,4.698.307,9.745,1.247,15.886,2.958,6.629,1.847,8.055,5.805,8.278,12.017.035.969.07,1.955.158,2.368.368.163,1.256.391,2.052.595.868.223,1.742.425,2.616.626,1.016.234,2.03.469,3.038.734,4.289,1.128,7.335,3.948,9.254,5.97,2.908,3.068,3.799,6.724,2.576,10.574-.656,2.059-1.461,4.434-2.722,6.561-2.49,4.197-5.086,8.226-7.715,11.973-4.132,5.891-9.81,8.953-16.522,8.857-4.18-.065-6.687,1.049-8.907,3.961-4.586,6.013-9.381,4.123-13.049,1.808-1.037-.656-2.147-1.358-3.066-2.336-3.992-4.244-8.721-7.432-13.727-10.807-2.571-1.733-5.229-3.524-7.753-5.459-.965-.739-2.034-1.425-3.179-2.038-.764-.408-1.107-.463-1.204-.47.005.044-.248.344-.57,1.245-1.826,5.096-5.678,7.607-11.109,7.28-3.982-.245-6.927.918-9.231,3.656-1.607,1.911-4.418,3.25-6.467,1.969-1.839-1.153-2.382-.797-4.329,1.55-.324.391-.648.78-.979,1.142-7.23,7.915-14.892,13.002-23.422,15.55-.195.058-.661.498-.969.788-.753.712-2.079,1.963-3.888,1.963Z"/><path class="q" d="M381.673,66.37c-1.558,0-3.086-.069-4.568-.158-1.712-.102-3.099-.785-4.324-1.387l-.295-.145c-7.718-3.77-16.142-6.774-25.042-8.929-5.217-1.264-10.447-1.512-15.983-1.775-2.431-.115-4.945-.235-7.431-.449-1.007-.087-2.018-.145-3.029-.204-2.012-.117-4.092-.237-6.16-.576-8.283-1.355-11.096-4.662-11.149-13.106-.016-2.444.136-4.891.282-7.259l.069-1.113c.037-.609.12-1.989.076-2.826-.749.138-1.89.475-2.341.608-.621.184-1.236.392-1.853.6-1.23.416-2.503.846-3.86,1.112-4.582.894-11.376,1.582-17.48-2.743-5.567-3.944-8.075-8.896-7.667-15.141.124-1.91.587-3.673,1.035-5.377.208-.794.421-1.604.598-2.43-.46-.177-.956-.336-1.465-.501-1.848-.594-3.943-1.267-5.583-3.131-.747-.85-1.538-1.658-2.374-2.513-1.103-1.127-2.244-2.293-3.285-3.57-2.167-2.657-4.098-3.693-6.591-3.593-3.223.139-5.841-1.576-7.237-4.687-.493-1.1-1.146-1.66-3.346-1.67-5.405-.025-10.977-.052-15.997,2.33-1.799.854-3.907,1.488-6.094,1.835-1.668.265-3.049.981-4.618,2.395-2.381,2.149-4.872,4.225-7.28,6.232-.937.781-1.876,1.562-2.808,2.348-.359.303-.712.615-1.064.928-.912.808-1.856,1.643-2.941,2.365-6.238,4.147-13.625,3.12-18.378-2.556-1.505-1.798-2.925-3.682-4.297-5.504-.598-.794-1.197-1.588-1.802-2.376-2.249-2.925-4.279-6.222-3.91-10.496.116-1.35-.149-2.893-3-4.09-1.193-.501-2.425-.914-3.732-1.35-1.312-.438-2.667-.891-3.998-1.447-3.459-1.448-5.005-4.862-3.939-8.697.734-2.639,2.427-4.481,3.922-6.107.163-.178.327-.357.49-.536-.485-.346-.932-.636-1.379-.926-1.066-.694-2.171-1.411-3.183-2.328-2.303-2.082-3.51-4.971-3.314-7.925.198-2.981,1.797-5.713,4.387-7.495,2.963-2.039,6.591-3.245,11.087-3.689,1.82-.179,3.637-.191,5.393-.203.99-.006,1.98-.012,2.969-.049.555-.02,1.124-.012,1.694-.002,1.234.022,2.393.041,3.141-.292.148-.214.138-1.062.132-1.568-.007-.592-.015-1.263.083-1.927.638-4.338,3.207-7.421,7.427-8.917,1.79-.635,3.62-1.109,5.39-1.567,1.144-.296,2.29-.592,3.419-.932.538-.162,1.118-.28,1.702-.396.979-.194,1.993-.394,2.253-.826,2.622-4.357,6.582-4.684,9.741-4.481,5.271.336,8.401-2.058,10.428-8.015.602-1.771.878-3.602,1.169-5.54.109-.725.219-1.451.345-2.176,1.178-6.741,4.819-9.524,11.447-8.766.881.101,1.691.303,2.474.499.544.135,1.088.275,1.639.36.805.125,2.022.312,2.336.228.212-.241.821-1.932,1.049-2.569,2.095-5.825,5.857-8.364,11.496-7.757,1.413.152,2.892.085,4.457.015l.154-.007c6.996-.315,13.377,1.901,18.971,6.578,3.28,2.741,6.472,5.659,9.559,8.481l2.186,1.994c.762.693.943.857,2.433-.02,6.103-3.597,14.036-2.724,19.29,2.129,2.242,2.073,4.5,4.525,6.903,7.497,1.317,1.627,2.759,2.47,4.288,2.505,1.693.039,3.476-.929,5.066-2.722,1.235-1.393,2.251-3.03,3.328-4.763.364-.585.726-1.169,1.098-1.744,1.144-1.77,3.096-4.165,6.836-4.53,4.826-.471,7.551-4.135,10.436-8.014.556-.747,1.023-1.626,1.519-2.558.542-1.019,1.102-2.073,1.839-3.072,4.611-6.244,10.826-8.782,17.955-7.341,3.659.739,7.207,1.782,10.526,2.788,1.538.466,3.012,1.086,4.437,1.684.091.039.182.077.274.115.198-.287.407-.568.649-.847,2.689-3.125,5.113-3.57,8.364-1.53,2.306,1.448,3.923,3.452,5.202,5.22,3.837,5.31,5.95,11.458,6.463,18.795.261,3.742.714,7.726,1.471,12.917.237,1.629.832,3.308,1.475,5.028.041-.063.079-.129.12-.192.187-.289.419-.65.754-1.001,2.187-2.289,4.334-3.403,6.562-3.403.016,0,.033,0,.049,0,2.183.016,4.233,1.089,6.264,3.28,1.675,1.808,2.903,3.609,3.645,5.353,1.869,4.39,4.283,10.201,6.366,16.22,1.791,5.174.247,9.912-4.351,13.342-1.438,1.073-2.984,2.017-4.32,2.818-1.217.729-1.607,1.431-1.494,2.68.181,1.994.894,2.578,2.145,2.957,9.774,2.963,16.081,9.932,19.848,21.931,1.843,5.871.486,10.892-4.034,14.923-.311.277-.66.524-1.012.764-.232.159-.551.376-.635.486-3.464,4.475-8.223,6.53-14.163,6.108-3.926-.277-7.623,1.158-12.034,4.657-2.056,1.631-2.195,2.218-1.064,4.483,3.36,6.725,5.536,13.293,6.652,20.08l.1.599c.295,1.768.601,3.597.563,5.491-.112,5.522-2.116,7.992-7.655,9.44-2.186.572-4.332,1.513-6.957,3.053-.581.341-1.167.677-1.753,1.014-2.286,1.313-4.445,2.553-6.387,4.065-5.488,4.273-11.567,5.199-17.267,5.199ZM163.551-39.695h0Z"/></g></g><g id="c"><g class="r"><path class="w" d="M818.946,89.542c14.853-.353-.852-1.965,13.424-3.458,7.165-.58,14.29-1.406,21.432-2.122,7.107-.896,14.248-1.64,21.326-2.66,28.362-3.854,56.443-8.938,83.927-15.505,27.473-6.573,54.365-14.626,80.071-24.561,6.418-2.509,12.822-5.04,19.153-7.662,6.329-2.622,12.594-5.345,18.516-8.423,2.99-1.502,5.873-3.127,8.499-4.977,2.631-1.84,4.976-3.934,7.109-6.152,4.289-4.429,7.096-9.661,8.709-15.103-1.324,5.483-3.867,10.856-7.99,15.499-2.041,2.315-4.314,4.523-6.919,6.501-2.593,1.983-5.454,3.737-8.411,5.36-6.004,3.152-12.331,5.851-18.672,8.496-6.354,2.632-12.766,5.166-19.192,7.678-25.808,9.975-52.788,18.054-80.34,24.645-27.563,6.586-55.714,11.682-84.142,15.545-7.095,1.022-14.253,1.768-21.376,2.666l-10.734,1.11c-3.576.377-7.153.756-10.749,1.022-14.378,1.068.799,1.904-13.64,2.1Z"/></g><path class="o" d="M1101.111-1.08c-5.804,19.204-24.505,29.217-45.154,24.116-4.13-1.02-11.327-3.126-12.536-4.922-3.576,1.208-8.202-5.148-12.478-8.833-2.5,2.236-.224,3.535-5.717,4.987-3.205,1.807-3.964,3.79-6.601,5.554-3.762.58-6.755,3.283-7.631,6-1.557.942-4.383,5.813-8.807,6.325-4.017,1.295-7.562,5.92-10.13,6.529-3.613,2.197-7.472,4.408-11.599,6.613-1.651.882-3.345,1.763-5.084,2.641-.869.439-1.75.878-2.642,1.316-.781.472-1.675,1.046-2.71,1.312-.521.062-.852,1.249-2.779,1.306-.264.67-2.688,2.036-2.85,1.3-.77.204-2.545.711-2.921,1.293-.366.774-2.379.866-2.994,1.284-1.352.621-2.26.975-3.068,1.275-.518.212-1.038.423-1.562.634-.501.373-.054,1.003-1.581.631-1.638.652-2.668.834-3.016,1.176-.378.024-2.668-.013-3.084,1.165-2.422.305-1.39-.108-3.153,1.154-.866.713-1.603-.073-3.223,1.142-1.351.411-4.835,1.56-3.294,1.129-1.364,1.049-1.918,1.493-3.366,1.115-.345.445-.865.261-3.439,1.1-1.706.953-1.567.792-3.513,1.085-1.588.258-3.206.909-3.588,1.069-.402.52-2.532,1.124-3.664,1.052-1.686.51-2.504.841-3.74,1.034-1.045.245-2.532.68-3.818,1.015-5.143,1.341-10.407,3.14-16.069,3.86-63.759,8.107-76.351,14.165-76.351,14.165,0,0,104.968-2.582,220.591-47.701,32.059-12.511,42.85-17.693,50.267-24.636,5.67-5.308,9.193-10.297,11.307-18.285Z"/><path class="n" d="M1101.111-1.08c-5.804,19.204-24.505,29.217-45.154,24.116-4.13-1.02-11.327-3.126-12.536-4.922-3.576,1.208-8.202-5.148-12.478-8.833-2.5,2.236-.224,3.535-5.717,4.987-3.205,1.807-3.964,3.79-6.601,5.554-3.762.58-6.755,3.283-7.631,6-1.557.942-4.383,5.813-8.807,6.325-4.017,1.295-7.562,5.92-10.13,6.529-3.613,2.197-7.472,4.408-11.599,6.613-1.651.882-3.345,1.763-5.084,2.641-.869.439-1.75.878-2.642,1.316-.781.472-1.675,1.046-2.71,1.312-.521.062-.852,1.249-2.779,1.306-.264.67-2.688,2.036-2.85,1.3-.77.204-2.545.711-2.921,1.293-.366.774-2.379.866-2.994,1.284-1.352.621-2.26.975-3.068,1.275-.518.212-1.038.423-1.562.634-.501.373-.054,1.003-1.581.631-1.638.652-2.668.834-3.016,1.176-.378.024-2.668-.013-3.084,1.165-2.422.305-1.39-.108-3.153,1.154-.866.713-1.603-.073-3.223,1.142-1.351.411-4.835,1.56-3.294,1.129-1.364,1.049-1.918,1.493-3.366,1.115-.345.445-.865.261-3.439,1.1-1.706.953-1.567.792-3.513,1.085-1.588.258-3.206.909-3.588,1.069-.402.52-2.532,1.124-3.664,1.052-1.686.51-2.504.841-3.74,1.034-1.045.245-2.532.68-3.818,1.015-5.143,1.341-10.5,2.614-16.069,3.86-59.326,13.272-76.351,14.165-76.351,14.165,0,0,104.968-2.582,220.591-47.701,32.059-12.511,42.85-17.693,50.267-24.636,5.67-5.308,9.193-10.297,11.307-18.285Z"/></g><g id="g"><g class="r"><path class="w" d="M137.59,89.191c-4.444.222-11.618.614-15.135.208-6.62-.557-10.241-2.14-28.739-12.694-12.112-6.962-24.088-14.107-35.987-21.341-11.856-7.276-23.757-14.538-35.071-22.396C3.175,19.66,1.905,12.511,1.352,1.992c.616,11.722.454,17.848,20.66,31.65,11.367,7.895,23.26,15.149,35.128,22.433,11.906,7.238,24.079,14.289,36.205,21.259,14.541,8.297,21.54,12.058,29.1,12.389,3.699.133,11.475-.276,15.145-.533Z"/></g><path class="v" d="M103.013,19.811c-.061,1.925-.109,3.799-.146,5.622,2.55.948,1.603,3.959-.074,5.32-2.65.524,1.085.096-.003,4.742-3.843.361-2.781,3.775.067,5.022,2.798,6.218-1.225,13.489.135,5.104,2.172-1.598,2.007,6.024.202,3.548.187,6.927.787,2.673.268,4.394-.618-1.413-1.233,6.734.333,3.209,3.039,3.366-2.379-3.513.397,4.02,1.009,2.528.681,1.001.459,2.598,1.295-2.688,1.953,4.151.52,3.377.981,1.222,1.055,2.492.58,2.321.569.291.852,3.25,1.335,4.843.483,1.479,1.004,2.825,1.56,4.051,4.452,9.804,11.199,11.848,19.409,11.611,1.536-.044,9.533-.403,9.533-.403-19.929,1.394-21.538.339-37.184-8.2-14.812-8.085-70.785-41.402-82.443-50.93C5.997,20.281,2.109,17.545,1.352,1.992c.929,17.808,7.258,24.578,35.436,24.126,1.879-.03,3.854-.38,5.932-.186,2.078.65,4.257-1.976,6.544-.371,2.286.495,4.68-1.539,7.185-.55,2.505,3.029,5.122.866,7.855-.723,2.733-.822,5.583-3.563,8.555-.888,2.971,2.54,6.064.589,9.284-1.047,3.219-3.152,6.565-.657,10.042-1.199,3.477-4.793,7.085-.872,10.829-1.344Z"/><path class="m" d="M103.013,19.811c-.061,1.925-.109,3.799-.146,5.622,2.55.948,1.603,3.959-.074,5.32-2.65.524,1.085.096-.003,4.742-3.843.361-2.781,3.775.067,5.022,2.798,6.218-1.225,13.489.135,5.104,2.172-1.598,2.007,6.024.202,3.548.187,6.927.787,2.673.268,4.394-.618-1.413-1.233,6.734.333,3.209,3.039,3.366-2.379-3.513.397,4.02,1.009,2.528.681,1.001.459,2.598,1.295-2.688,1.953,4.151.52,3.377.981,1.222,1.055,2.492.58,2.321.569.291.852,3.25,1.335,4.843.483,1.479,1.004,2.825,1.56,4.051,4.452,9.804,11.199,11.848,19.409,11.611,1.536-.044,9.533-.403,9.533-.403-19.929,1.394-21.538.339-37.184-8.2-14.812-8.085-70.785-41.402-82.443-50.93C5.997,20.281,2.109,17.545,1.352,1.992c.929,17.808,7.258,24.578,35.436,24.126,1.879-.03,3.854-.38,5.932-.186,2.078.65,4.257-1.976,6.544-.371,2.286.495,4.68-1.539,7.185-.55,2.505,3.029,5.122.866,7.855-.723,2.733-.822,5.583-3.563,8.555-.888,2.971,2.54,6.064.589,9.284-1.047,3.219-3.152,6.565-.657,10.042-1.199,3.477-4.793,7.085-.872,10.829-1.344Z"/></g></g></g></svg>