<?xml version="1.0" encoding="UTF-8"?><svg xmlns="http://www.w3.org/2000/svg" width="1100.327" height="89.788" xmlns:xlink="http://www.w3.org/1999/xlink" viewBox="0 0 1100.327 89.788"><defs><style>.j,.k{fill:url(#g);}.l,.m{fill:url(#c);}.n{isolation:isolate;}.o{mix-blend-mode:multiply;}.p{fill:#fff;}.k{filter:url(#h);}.m{filter:url(#d);}.q{fill:#878787;}</style><linearGradient id="c" x1="-97.003" y1="1249.411" x2="-71.165" y2="1287.266" gradientTransform="translate(1060.816 -1205.194) rotate(.184)" gradientUnits="userSpaceOnUse"><stop offset=".695" stop-color="#f8efd5"/><stop offset=".912" stop-color="#c5bd97"/><stop offset="1" stop-color="#b0a87e"/></linearGradient><filter id="d" x="806.049" y="-15.185" width="307" height="116" filterUnits="userSpaceOnUse"><feOffset dx="-.78" dy="-1.95"/><feGaussianBlur result="e" stdDeviation="3.9"/><feFlood flood-color="#20245c" flood-opacity=".2"/><feComposite in2="e" operator="in"/><feComposite in="SourceGraphic"/></filter><linearGradient id="g" x1="2431.9" y1="1158.658" x2="2467.728" y2="1203.786" gradientTransform="translate(2458.589 -1281.444) rotate(176.826) scale(1 -1)" gradientUnits="userSpaceOnUse"><stop offset="0" stop-color="#f7f0e2"/><stop offset=".311" stop-color="#f7efdd"/><stop offset=".664" stop-color="#f7eecf"/><stop offset=".695" stop-color="#f8eece"/><stop offset=".901" stop-color="#cbc4ab"/><stop offset=".93" stop-color="#c8c1a8"/><stop offset=".949" stop-color="#bfb89f"/><stop offset=".966" stop-color="#b1aa90"/><stop offset=".981" stop-color="#9c967a"/><stop offset=".995" stop-color="#817c5f"/><stop offset="1" stop-color="#777254"/></linearGradient><filter id="h" x="-7.736" y="-9.97" width="156" height="108" filterUnits="userSpaceOnUse"><feOffset dx=".632" dy="-1.581"/><feGaussianBlur result="i" stdDeviation="3.162"/><feFlood flood-color="#20245c" flood-opacity=".2"/><feComposite in2="i" operator="in"/><feComposite in="SourceGraphic"/></filter></defs><g class="n"><g id="a"><path class="p" d="M1032.228-580.044c44.802,33.33,68.831,66.971,68.831,66.971V-1.555s2.104,25.277-66.507,45.041c-41.679,13.815-204.437,45.948-204.437,45.948H118.521s-48.149-27.4-69.31-41.817C27.903,33.099.741,29.587.983.552c0-32.782,0-525.775,0-531.298,1.339-19.378,1.942-19.304,38.43-37.318,38.892-24.792,139.024-44.951,139.024-44.951h791.394s10.619-1.755,62.397,32.971Z"/><g id="b"><g class="o"><path class="q" d="M818.946,89.542c14.853-.353-.852-1.965,13.424-3.458,7.165-.58,14.29-1.406,21.432-2.122,7.107-.896,14.248-1.64,21.326-2.66,28.362-3.854,56.443-8.938,83.927-15.505,27.473-6.573,54.365-14.626,80.071-24.561,6.418-2.509,12.822-5.04,19.153-7.662,6.329-2.622,12.594-5.345,18.516-8.423,2.99-1.502,5.873-3.127,8.499-4.977,2.631-1.84,4.976-3.934,7.109-6.152,4.289-4.429,7.096-9.661,8.709-15.103-1.324,5.483-3.867,10.856-7.99,15.499-2.041,2.315-4.314,4.523-6.919,6.501-2.593,1.983-5.454,3.737-8.411,5.36-6.004,3.152-12.331,5.851-18.672,8.496-6.354,2.632-12.766,5.166-19.192,7.678-25.808,9.975-52.788,18.054-80.34,24.645-27.563,6.586-55.714,11.682-84.142,15.545-7.095,1.022-14.253,1.768-21.376,2.666l-10.734,1.11c-3.576.377-7.153.756-10.749,1.022-14.378,1.068.799,1.904-13.64,2.1Z"/></g><path class="m" d="M1101.111-1.08c-5.804,19.204-24.505,29.217-45.154,24.116-4.13-1.02-11.327-3.126-12.536-4.922-3.576,1.208-8.202-5.148-12.478-8.833-2.5,2.236-.224,3.535-5.717,4.987-3.205,1.807-3.964,3.79-6.601,5.554-3.762.58-6.755,3.283-7.631,6-1.557.942-4.383,5.813-8.807,6.325-4.017,1.295-7.562,5.92-10.13,6.529-3.613,2.197-7.472,4.408-11.599,6.613-1.651.882-3.345,1.763-5.084,2.641-.869.439-1.75.878-2.642,1.316-.781.472-1.675,1.046-2.71,1.312-.521.062-.852,1.249-2.779,1.306-.264.67-2.688,2.036-2.85,1.3-.77.204-2.545.711-2.921,1.293-.366.774-2.379.866-2.994,1.284-1.352.621-2.26.975-3.068,1.275-.518.212-1.038.423-1.562.634-.501.373-.054,1.003-1.581.631-1.638.652-2.668.834-3.016,1.176-.378.024-2.668-.013-3.084,1.165-2.422.305-1.39-.108-3.153,1.154-.866.713-1.603-.073-3.223,1.142-1.351.411-4.835,1.56-3.294,1.129-1.364,1.049-1.918,1.493-3.366,1.115-.345.445-.865.261-3.439,1.1-1.706.953-1.567.792-3.513,1.085-1.588.258-3.206.909-3.588,1.069-.402.52-2.532,1.124-3.664,1.052-1.686.51-2.504.841-3.74,1.034-1.045.245-2.532.68-3.818,1.015-5.143,1.341-10.407,3.14-16.069,3.86-63.759,8.107-76.351,14.165-76.351,14.165,0,0,104.968-2.582,220.591-47.701,32.059-12.511,42.85-17.693,50.267-24.636,5.67-5.308,9.193-10.297,11.307-18.285Z"/><path class="l" d="M1101.111-1.08c-5.804,19.204-24.505,29.217-45.154,24.116-4.13-1.02-11.327-3.126-12.536-4.922-3.576,1.208-8.202-5.148-12.478-8.833-2.5,2.236-.224,3.535-5.717,4.987-3.205,1.807-3.964,3.79-6.601,5.554-3.762.58-6.755,3.283-7.631,6-1.557.942-4.383,5.813-8.807,6.325-4.017,1.295-7.562,5.92-10.13,6.529-3.613,2.197-7.472,4.408-11.599,6.613-1.651.882-3.345,1.763-5.084,2.641-.869.439-1.75.878-2.642,1.316-.781.472-1.675,1.046-2.71,1.312-.521.062-.852,1.249-2.779,1.306-.264.67-2.688,2.036-2.85,1.3-.77.204-2.545.711-2.921,1.293-.366.774-2.379.866-2.994,1.284-1.352.621-2.26.975-3.068,1.275-.518.212-1.038.423-1.562.634-.501.373-.054,1.003-1.581.631-1.638.652-2.668.834-3.016,1.176-.378.024-2.668-.013-3.084,1.165-2.422.305-1.39-.108-3.153,1.154-.866.713-1.603-.073-3.223,1.142-1.351.411-4.835,1.56-3.294,1.129-1.364,1.049-1.918,1.493-3.366,1.115-.345.445-.865.261-3.439,1.1-1.706.953-1.567.792-3.513,1.085-1.588.258-3.206.909-3.588,1.069-.402.52-2.532,1.124-3.664,1.052-1.686.51-2.504.841-3.74,1.034-1.045.245-2.532.68-3.818,1.015-5.143,1.341-10.5,2.614-16.069,3.86-59.326,13.272-76.351,14.165-76.351,14.165,0,0,104.968-2.582,220.591-47.701,32.059-12.511,42.85-17.693,50.267-24.636,5.67-5.308,9.193-10.297,11.307-18.285Z"/></g><g id="f"><g class="o"><path class="q" d="M137.59,89.191c-4.444.222-11.618.614-15.135.208-6.62-.557-10.241-2.14-28.739-12.694-12.112-6.962-24.088-14.107-35.987-21.341-11.856-7.276-23.757-14.538-35.071-22.396C3.175,19.66,1.905,12.511,1.352,1.992c.616,11.722.454,17.848,20.66,31.65,11.367,7.895,23.26,15.149,35.128,22.433,11.906,7.238,24.079,14.289,36.205,21.259,14.541,8.297,21.54,12.058,29.1,12.389,3.699.133,11.475-.276,15.145-.533Z"/></g><path class="k" d="M103.013,19.811c-.061,1.925-.109,3.799-.146,5.622,2.55.948,1.603,3.959-.074,5.32-2.65.524,1.085.096-.003,4.742-3.843.361-2.781,3.775.067,5.022,2.798,6.218-1.225,13.489.135,5.104,2.172-1.598,2.007,6.024.202,3.548.187,6.927.787,2.673.268,4.394-.618-1.413-1.233,6.734.333,3.209,3.039,3.366-2.379-3.513.397,4.02,1.009,2.528.681,1.001.459,2.598,1.295-2.688,1.953,4.151.52,3.377.981,1.222,1.055,2.492.58,2.321.569.291.852,3.25,1.335,4.843.483,1.479,1.004,2.825,1.56,4.051,4.452,9.804,11.199,11.848,19.409,11.611,1.536-.044,9.533-.403,9.533-.403-19.929,1.394-21.538.339-37.184-8.2-14.812-8.085-70.785-41.402-82.443-50.93C5.997,20.281,2.109,17.545,1.352,1.992c.929,17.808,7.258,24.578,35.436,24.126,1.879-.03,3.854-.38,5.932-.186,2.078.65,4.257-1.976,6.544-.371,2.286.495,4.68-1.539,7.185-.55,2.505,3.029,5.122.866,7.855-.723,2.733-.822,5.583-3.563,8.555-.888,2.971,2.54,6.064.589,9.284-1.047,3.219-3.152,6.565-.657,10.042-1.199,3.477-4.793,7.085-.872,10.829-1.344Z"/><path class="j" d="M103.013,19.811c-.061,1.925-.109,3.799-.146,5.622,2.55.948,1.603,3.959-.074,5.32-2.65.524,1.085.096-.003,4.742-3.843.361-2.781,3.775.067,5.022,2.798,6.218-1.225,13.489.135,5.104,2.172-1.598,2.007,6.024.202,3.548.187,6.927.787,2.673.268,4.394-.618-1.413-1.233,6.734.333,3.209,3.039,3.366-2.379-3.513.397,4.02,1.009,2.528.681,1.001.459,2.598,1.295-2.688,1.953,4.151.52,3.377.981,1.222,1.055,2.492.58,2.321.569.291.852,3.25,1.335,4.843.483,1.479,1.004,2.825,1.56,4.051,4.452,9.804,11.199,11.848,19.409,11.611,1.536-.044,9.533-.403,9.533-.403-19.929,1.394-21.538.339-37.184-8.2-14.812-8.085-70.785-41.402-82.443-50.93C5.997,20.281,2.109,17.545,1.352,1.992c.929,17.808,7.258,24.578,35.436,24.126,1.879-.03,3.854-.38,5.932-.186,2.078.65,4.257-1.976,6.544-.371,2.286.495,4.68-1.539,7.185-.55,2.505,3.029,5.122.866,7.855-.723,2.733-.822,5.583-3.563,8.555-.888,2.971,2.54,6.064.589,9.284-1.047,3.219-3.152,6.565-.657,10.042-1.199,3.477-4.793,7.085-.872,10.829-1.344Z"/></g></g></g></svg>